solid OpenSCAD_Model
  facet normal -1 0 0
    outer loop
      vertex 0 10 0
      vertex 0 38 16
      vertex 0 38 0
    endloop
  endfacet
  facet normal -1 -0 0
    outer loop
      vertex 0 38 16
      vertex 0 10 0
      vertex 0 10 16
    endloop
  endfacet
  facet normal 0 0 1
    outer loop
      vertex 9.5 38 16
      vertex 3 35 16
      vertex 9.5 35 16
    endloop
  endfacet
  facet normal 0 0 1
    outer loop
      vertex 0 10 16
      vertex 3 35 16
      vertex 0 38 16
    endloop
  endfacet
  facet normal -0 0 1
    outer loop
      vertex 0 38 16
      vertex 3 35 16
      vertex 9.5 38 16
    endloop
  endfacet
  facet normal -0 0 1
    outer loop
      vertex 3 3 16
      vertex 9.5 0 16
      vertex 9.5 3 16
    endloop
  endfacet
  facet normal 0 0 1
    outer loop
      vertex 3 35 16
      vertex 0 10 16
      vertex 3 3 16
    endloop
  endfacet
  facet normal -0 0 1
    outer loop
      vertex -3.06815 5.51764 16
      vertex 3 3 16
      vertex 0 10 16
    endloop
  endfacet
  facet normal -0 0 1
    outer loop
      vertex -3.06815 4.48236 16
      vertex 3 3 16
      vertex -3 5 16
    endloop
  endfacet
  facet normal -0 0 1
    outer loop
      vertex -3.26795 4 16
      vertex 3 3 16
      vertex -3.06815 4.48236 16
    endloop
  endfacet
  facet normal -0 0 1
    outer loop
      vertex -3.58579 3.58579 16
      vertex 3 3 16
      vertex -3.26795 4 16
    endloop
  endfacet
  facet normal 0 0 1
    outer loop
      vertex -5 0 16
      vertex 3 3 16
      vertex -3.58579 3.58579 16
    endloop
  endfacet
  facet normal 0 0 1
    outer loop
      vertex -5 0 16
      vertex -3.58579 3.58579 16
      vertex -4 3.26795 16
    endloop
  endfacet
  facet normal 0 0 1
    outer loop
      vertex -5 0 16
      vertex -4 3.26795 16
      vertex -4.48236 3.06815 16
    endloop
  endfacet
  facet normal 0 0 1
    outer loop
      vertex -5 0 16
      vertex -4.48236 3.06815 16
      vertex -5 3 16
    endloop
  endfacet
  facet normal 0 0 1
    outer loop
      vertex 3 3 16
      vertex -5 0 16
      vertex 9.5 0 16
    endloop
  endfacet
  facet normal 0 0 1
    outer loop
      vertex -5.51764 3.06815 16
      vertex -5 0 16
      vertex -5 3 16
    endloop
  endfacet
  facet normal 0 0 1
    outer loop
      vertex -6.91342 0.380602 16
      vertex -5.51764 3.06815 16
      vertex -6 3.26795 16
    endloop
  endfacet
  facet normal 0 0 1
    outer loop
      vertex -8.53553 1.46447 16
      vertex -6 3.26795 16
      vertex -6.41421 3.58579 16
    endloop
  endfacet
  facet normal 0 0 1
    outer loop
      vertex -8.53553 1.46447 16
      vertex -6.41421 3.58579 16
      vertex -6.73205 4 16
    endloop
  endfacet
  facet normal 0 0 1
    outer loop
      vertex -5.51764 3.06815 16
      vertex -6.91342 0.380602 16
      vertex -5 0 16
    endloop
  endfacet
  facet normal 0 0 1
    outer loop
      vertex -9.6194 3.08658 16
      vertex -6.73205 4 16
      vertex -6.93185 4.48236 16
    endloop
  endfacet
  facet normal -0 0 1
    outer loop
      vertex -10 5 16
      vertex -6.93185 4.48236 16
      vertex -7 5 16
    endloop
  endfacet
  facet normal 0 0 1
    outer loop
      vertex -10 5 16
      vertex -6.93185 5.51764 16
      vertex -9.6194 6.91342 16
    endloop
  endfacet
  facet normal 0 0 1
    outer loop
      vertex -6 3.26795 16
      vertex -8.53553 1.46447 16
      vertex -6.91342 0.380602 16
    endloop
  endfacet
  facet normal 0 0 1
    outer loop
      vertex -6.93185 5.51764 16
      vertex -10 5 16
      vertex -7 5 16
    endloop
  endfacet
  facet normal 0 0 1
    outer loop
      vertex -6.73205 4 16
      vertex -9.6194 3.08658 16
      vertex -8.53553 1.46447 16
    endloop
  endfacet
  facet normal 0 0 1
    outer loop
      vertex -6.93185 4.48236 16
      vertex -10 5 16
      vertex -9.6194 3.08658 16
    endloop
  endfacet
  facet normal 0 0 1
    outer loop
      vertex 3 3 16
      vertex -3.06815 5.51764 16
      vertex -3 5 16
    endloop
  endfacet
  facet normal 0 0 1
    outer loop
      vertex 0 10 16
      vertex -3.26795 6 16
      vertex -3.06815 5.51764 16
    endloop
  endfacet
  facet normal 0 0 1
    outer loop
      vertex 0 10 16
      vertex -3.58579 6.41421 16
      vertex -3.26795 6 16
    endloop
  endfacet
  facet normal 0 0 1
    outer loop
      vertex 0 10 16
      vertex -4 6.73205 16
      vertex -3.58579 6.41421 16
    endloop
  endfacet
  facet normal -0 0 1
    outer loop
      vertex -5 10 16
      vertex -4 6.73205 16
      vertex 0 10 16
    endloop
  endfacet
  facet normal 0 0 1
    outer loop
      vertex -4 6.73205 16
      vertex -5 10 16
      vertex -4.48236 6.93185 16
    endloop
  endfacet
  facet normal 0 0 1
    outer loop
      vertex -5 10 16
      vertex -5 7 16
      vertex -4.48236 6.93185 16
    endloop
  endfacet
  facet normal 0 0 1
    outer loop
      vertex -5 10 16
      vertex -5.51764 6.93185 16
      vertex -5 7 16
    endloop
  endfacet
  facet normal -0 0 1
    outer loop
      vertex -6.91342 9.6194 16
      vertex -5.51764 6.93185 16
      vertex -5 10 16
    endloop
  endfacet
  facet normal 0 0 1
    outer loop
      vertex -5.51764 6.93185 16
      vertex -6.91342 9.6194 16
      vertex -6 6.73205 16
    endloop
  endfacet
  facet normal -0 0 1
    outer loop
      vertex -8.53553 8.53553 16
      vertex -6 6.73205 16
      vertex -6.91342 9.6194 16
    endloop
  endfacet
  facet normal 0 0 1
    outer loop
      vertex -6 6.73205 16
      vertex -8.53553 8.53553 16
      vertex -6.41421 6.41421 16
    endloop
  endfacet
  facet normal 0 0 1
    outer loop
      vertex -6.41421 6.41421 16
      vertex -8.53553 8.53553 16
      vertex -6.73205 6 16
    endloop
  endfacet
  facet normal -0 0 1
    outer loop
      vertex -9.6194 6.91342 16
      vertex -6.73205 6 16
      vertex -8.53553 8.53553 16
    endloop
  endfacet
  facet normal 0 0 1
    outer loop
      vertex -6.73205 6 16
      vertex -9.6194 6.91342 16
      vertex -6.93185 5.51764 16
    endloop
  endfacet
  facet normal -0 0 1
    outer loop
      vertex 57.9319 33.5176 16
      vertex 61 33 16
      vertex 60.6194 34.9134 16
    endloop
  endfacet
  facet normal 0 0 1
    outer loop
      vertex 57.732 34 16
      vertex 60.6194 34.9134 16
      vertex 59.5355 36.5355 16
    endloop
  endfacet
  facet normal 0 0 1
    outer loop
      vertex 61 33 16
      vertex 57.9319 33.5176 16
      vertex 58 33 16
    endloop
  endfacet
  facet normal 0 0 1
    outer loop
      vertex 61 33 16
      vertex 57.9319 32.4824 16
      vertex 60.6194 31.0866 16
    endloop
  endfacet
  facet normal 0 0 1
    outer loop
      vertex 57.9319 32.4824 16
      vertex 61 33 16
      vertex 58 33 16
    endloop
  endfacet
  facet normal 0 0 1
    outer loop
      vertex 57 34.732 16
      vertex 59.5355 36.5355 16
      vertex 57.9134 37.6194 16
    endloop
  endfacet
  facet normal 0 0 1
    outer loop
      vertex 60.6194 34.9134 16
      vertex 57.732 34 16
      vertex 57.9319 33.5176 16
    endloop
  endfacet
  facet normal 0 0 1
    outer loop
      vertex 59.5355 36.5355 16
      vertex 57.4142 34.4142 16
      vertex 57.732 34 16
    endloop
  endfacet
  facet normal 0 0 1
    outer loop
      vertex 59.5355 36.5355 16
      vertex 57 34.732 16
      vertex 57.4142 34.4142 16
    endloop
  endfacet
  facet normal 0 0 1
    outer loop
      vertex 57.9134 37.6194 16
      vertex 56.5176 34.9319 16
      vertex 57 34.732 16
    endloop
  endfacet
  facet normal 0 0 1
    outer loop
      vertex 56 38 16
      vertex 56.5176 34.9319 16
      vertex 57.9134 37.6194 16
    endloop
  endfacet
  facet normal 0 0 1
    outer loop
      vertex 56 38 16
      vertex 56 35 16
      vertex 56.5176 34.9319 16
    endloop
  endfacet
  facet normal 0 0 1
    outer loop
      vertex 56 38 16
      vertex 55.4824 34.9319 16
      vertex 56 35 16
    endloop
  endfacet
  facet normal 0 0 1
    outer loop
      vertex 56 38 16
      vertex 55 34.732 16
      vertex 55.4824 34.9319 16
    endloop
  endfacet
  facet normal 0 0 1
    outer loop
      vertex 56 38 16
      vertex 54.5858 34.4142 16
      vertex 55 34.732 16
    endloop
  endfacet
  facet normal -0 0 1
    outer loop
      vertex 48 35 16
      vertex 54.5858 34.4142 16
      vertex 56 38 16
    endloop
  endfacet
  facet normal 0 0 1
    outer loop
      vertex 48 35 16
      vertex 54 33 16
      vertex 54.0681 33.5176 16
    endloop
  endfacet
  facet normal 0 0 1
    outer loop
      vertex 48 35 16
      vertex 54.0681 33.5176 16
      vertex 54.2679 34 16
    endloop
  endfacet
  facet normal 0 0 1
    outer loop
      vertex 54.5858 34.4142 16
      vertex 48 35 16
      vertex 54.2679 34 16
    endloop
  endfacet
  facet normal 0 0 1
    outer loop
      vertex 48 3 16
      vertex 51 28 16
      vertex 48 35 16
    endloop
  endfacet
  facet normal 0 0 1
    outer loop
      vertex 54 33 16
      vertex 48 35 16
      vertex 51 28 16
    endloop
  endfacet
  facet normal -0 0 1
    outer loop
      vertex 41.5 38 16
      vertex 48 35 16
      vertex 56 38 16
    endloop
  endfacet
  facet normal 0 0 1
    outer loop
      vertex 48 35 16
      vertex 41.5 38 16
      vertex 41.5 35 16
    endloop
  endfacet
  facet normal -0 0 1
    outer loop
      vertex 57.732 32 16
      vertex 60.6194 31.0866 16
      vertex 57.9319 32.4824 16
    endloop
  endfacet
  facet normal 0 0 1
    outer loop
      vertex 60.6194 31.0866 16
      vertex 57.732 32 16
      vertex 59.5355 29.4645 16
    endloop
  endfacet
  facet normal -0 0 1
    outer loop
      vertex 57.4142 31.5858 16
      vertex 59.5355 29.4645 16
      vertex 57.732 32 16
    endloop
  endfacet
  facet normal -0 0 1
    outer loop
      vertex 57 31.2679 16
      vertex 59.5355 29.4645 16
      vertex 57.4142 31.5858 16
    endloop
  endfacet
  facet normal 0 0 1
    outer loop
      vertex 59.5355 29.4645 16
      vertex 57 31.2679 16
      vertex 57.9134 28.3806 16
    endloop
  endfacet
  facet normal -0 0 1
    outer loop
      vertex 56.5176 31.0681 16
      vertex 57.9134 28.3806 16
      vertex 57 31.2679 16
    endloop
  endfacet
  facet normal 0 0 1
    outer loop
      vertex 56 28 16
      vertex 56.5176 31.0681 16
      vertex 56 31 16
    endloop
  endfacet
  facet normal 0 0 1
    outer loop
      vertex 56.5176 31.0681 16
      vertex 56 28 16
      vertex 57.9134 28.3806 16
    endloop
  endfacet
  facet normal 0 0 1
    outer loop
      vertex 55.4824 31.0681 16
      vertex 56 28 16
      vertex 56 31 16
    endloop
  endfacet
  facet normal 0 0 1
    outer loop
      vertex 55 31.2679 16
      vertex 56 28 16
      vertex 55.4824 31.0681 16
    endloop
  endfacet
  facet normal 0 0 1
    outer loop
      vertex 51 28 16
      vertex 55 31.2679 16
      vertex 54.5858 31.5858 16
    endloop
  endfacet
  facet normal 0 0 1
    outer loop
      vertex 51 28 16
      vertex 54.5858 31.5858 16
      vertex 54.2679 32 16
    endloop
  endfacet
  facet normal 0 0 1
    outer loop
      vertex 55 31.2679 16
      vertex 51 28 16
      vertex 56 28 16
    endloop
  endfacet
  facet normal 0 0 1
    outer loop
      vertex 54.0681 32.4824 16
      vertex 51 28 16
      vertex 54.2679 32 16
    endloop
  endfacet
  facet normal 0 0 1
    outer loop
      vertex 51 28 16
      vertex 54.0681 32.4824 16
      vertex 54 33 16
    endloop
  endfacet
  facet normal 0 0 1
    outer loop
      vertex 51 28 16
      vertex 48 3 16
      vertex 51 0 16
    endloop
  endfacet
  facet normal 0 0 1
    outer loop
      vertex 41.5 0 16
      vertex 48 3 16
      vertex 41.5 3 16
    endloop
  endfacet
  facet normal 0 0 1
    outer loop
      vertex 48 3 16
      vertex 41.5 0 16
      vertex 51 0 16
    endloop
  endfacet
  facet normal -0 0 1
    outer loop
      vertex 17.5 3 16
      vertex 33.5 0 16
      vertex 33.5 3 16
    endloop
  endfacet
  facet normal 0 0 1
    outer loop
      vertex 33.5 0 16
      vertex 17.5 3 16
      vertex 17.5 0 16
    endloop
  endfacet
  facet normal -0 0 1
    outer loop
      vertex 17.5 38 16
      vertex 33.5 35 16
      vertex 33.5 38 16
    endloop
  endfacet
  facet normal 0 0 1
    outer loop
      vertex 33.5 35 16
      vertex 17.5 38 16
      vertex 17.5 35 16
    endloop
  endfacet
  facet normal 1 -0 0
    outer loop
      vertex 51 0 16
      vertex 51 28 0
      vertex 51 28 16
    endloop
  endfacet
  facet normal 1 0 0
    outer loop
      vertex 51 28 0
      vertex 51 0 16
      vertex 51 0 0
    endloop
  endfacet
  facet normal 0 0 -1
    outer loop
      vertex 51 0 0
      vertex 0 10 0
      vertex 51 28 0
    endloop
  endfacet
  facet normal 0 0 -1
    outer loop
      vertex -3.06815 4.48236 0
      vertex 0 10 0
      vertex 51 0 0
    endloop
  endfacet
  facet normal 0 0 -1
    outer loop
      vertex 0 10 0
      vertex -3.06815 4.48236 0
      vertex -3 5 0
    endloop
  endfacet
  facet normal 0 0 -1
    outer loop
      vertex 51 0 0
      vertex -3.26795 4 0
      vertex -3.06815 4.48236 0
    endloop
  endfacet
  facet normal 0 0 -1
    outer loop
      vertex -5 0 0
      vertex -3.26795 4 0
      vertex 51 0 0
    endloop
  endfacet
  facet normal 0 0 -1
    outer loop
      vertex -3.26795 4 0
      vertex -5 0 0
      vertex -3.58579 3.58579 0
    endloop
  endfacet
  facet normal 0 0 -1
    outer loop
      vertex -3.58579 3.58579 0
      vertex -5 0 0
      vertex -4 3.26795 0
    endloop
  endfacet
  facet normal 0 0 -1
    outer loop
      vertex -4 3.26795 0
      vertex -5 0 0
      vertex -4.48236 3.06815 0
    endloop
  endfacet
  facet normal 0 0 -1
    outer loop
      vertex -5 0 0
      vertex -5 3 0
      vertex -4.48236 3.06815 0
    endloop
  endfacet
  facet normal 0 0 -1
    outer loop
      vertex -5 0 0
      vertex -5.51764 3.06815 0
      vertex -5 3 0
    endloop
  endfacet
  facet normal 0 0 -1
    outer loop
      vertex -6.91342 0.380602 0
      vertex -5.51764 3.06815 0
      vertex -5 0 0
    endloop
  endfacet
  facet normal -0 0 -1
    outer loop
      vertex -5.51764 3.06815 0
      vertex -6.91342 0.380602 0
      vertex -6 3.26795 0
    endloop
  endfacet
  facet normal 0 0 -1
    outer loop
      vertex -8.53553 1.46447 0
      vertex -6 3.26795 0
      vertex -6.91342 0.380602 0
    endloop
  endfacet
  facet normal -0 0 -1
    outer loop
      vertex -6 3.26795 0
      vertex -8.53553 1.46447 0
      vertex -6.41421 3.58579 0
    endloop
  endfacet
  facet normal -0 0 -1
    outer loop
      vertex -6.41421 3.58579 0
      vertex -8.53553 1.46447 0
      vertex -6.73205 4 0
    endloop
  endfacet
  facet normal 0 0 -1
    outer loop
      vertex -9.6194 3.08658 0
      vertex -6.73205 4 0
      vertex -8.53553 1.46447 0
    endloop
  endfacet
  facet normal -0 0 -1
    outer loop
      vertex -6.73205 4 0
      vertex -9.6194 3.08658 0
      vertex -6.93185 4.48236 0
    endloop
  endfacet
  facet normal 0 0 -1
    outer loop
      vertex -3.06815 5.51764 0
      vertex 0 10 0
      vertex -3 5 0
    endloop
  endfacet
  facet normal 0 0 -1
    outer loop
      vertex -3.26795 6 0
      vertex 0 10 0
      vertex -3.06815 5.51764 0
    endloop
  endfacet
  facet normal 0 0 -1
    outer loop
      vertex -3.58579 6.41421 0
      vertex 0 10 0
      vertex -3.26795 6 0
    endloop
  endfacet
  facet normal 0 0 -1
    outer loop
      vertex -4 6.73205 0
      vertex 0 10 0
      vertex -3.58579 6.41421 0
    endloop
  endfacet
  facet normal 0 0 -1
    outer loop
      vertex -5 10 0
      vertex -4 6.73205 0
      vertex -4.48236 6.93185 0
    endloop
  endfacet
  facet normal 0 0 -1
    outer loop
      vertex -5 10 0
      vertex -4.48236 6.93185 0
      vertex -5 7 0
    endloop
  endfacet
  facet normal 0 0 -1
    outer loop
      vertex -4 6.73205 0
      vertex -5 10 0
      vertex 0 10 0
    endloop
  endfacet
  facet normal 0 0 -1
    outer loop
      vertex -5.51764 6.93185 0
      vertex -5 10 0
      vertex -5 7 0
    endloop
  endfacet
  facet normal 0 0 -1
    outer loop
      vertex -6.91342 9.6194 0
      vertex -5.51764 6.93185 0
      vertex -6 6.73205 0
    endloop
  endfacet
  facet normal 0 0 -1
    outer loop
      vertex -8.53553 8.53553 0
      vertex -6 6.73205 0
      vertex -6.41421 6.41421 0
    endloop
  endfacet
  facet normal 0 0 -1
    outer loop
      vertex -8.53553 8.53553 0
      vertex -6.41421 6.41421 0
      vertex -6.73205 6 0
    endloop
  endfacet
  facet normal 0 0 -1
    outer loop
      vertex -5.51764 6.93185 0
      vertex -6.91342 9.6194 0
      vertex -5 10 0
    endloop
  endfacet
  facet normal 0 0 -1
    outer loop
      vertex -9.6194 6.91342 0
      vertex -6.73205 6 0
      vertex -6.93185 5.51764 0
    endloop
  endfacet
  facet normal 0 0 -1
    outer loop
      vertex -10 5 0
      vertex -6.93185 5.51764 0
      vertex -7 5 0
    endloop
  endfacet
  facet normal 0 0 -1
    outer loop
      vertex -10 5 0
      vertex -6.93185 4.48236 0
      vertex -9.6194 3.08658 0
    endloop
  endfacet
  facet normal 0 0 -1
    outer loop
      vertex -6 6.73205 0
      vertex -8.53553 8.53553 0
      vertex -6.91342 9.6194 0
    endloop
  endfacet
  facet normal 0 0 -1
    outer loop
      vertex -6.93185 4.48236 0
      vertex -10 5 0
      vertex -7 5 0
    endloop
  endfacet
  facet normal 0 0 -1
    outer loop
      vertex -6.73205 6 0
      vertex -9.6194 6.91342 0
      vertex -8.53553 8.53553 0
    endloop
  endfacet
  facet normal -0 0 -1
    outer loop
      vertex -6.93185 5.51764 0
      vertex -10 5 0
      vertex -9.6194 6.91342 0
    endloop
  endfacet
  facet normal 0 0 -1
    outer loop
      vertex 57.9319 32.4824 0
      vertex 61 33 0
      vertex 60.6194 31.0866 0
    endloop
  endfacet
  facet normal 0 0 -1
    outer loop
      vertex 57.732 32 0
      vertex 60.6194 31.0866 0
      vertex 59.5355 29.4645 0
    endloop
  endfacet
  facet normal -0 0 -1
    outer loop
      vertex 61 33 0
      vertex 57.9319 32.4824 0
      vertex 58 33 0
    endloop
  endfacet
  facet normal 0 0 -1
    outer loop
      vertex 61 33 0
      vertex 57.9319 33.5176 0
      vertex 60.6194 34.9134 0
    endloop
  endfacet
  facet normal 0 0 -1
    outer loop
      vertex 57.9319 33.5176 0
      vertex 61 33 0
      vertex 58 33 0
    endloop
  endfacet
  facet normal 0 0 -1
    outer loop
      vertex 57 31.2679 0
      vertex 59.5355 29.4645 0
      vertex 57.9134 28.3806 0
    endloop
  endfacet
  facet normal 0 0 -1
    outer loop
      vertex 60.6194 31.0866 0
      vertex 57.732 32 0
      vertex 57.9319 32.4824 0
    endloop
  endfacet
  facet normal 0 0 -1
    outer loop
      vertex 59.5355 29.4645 0
      vertex 57.4142 31.5858 0
      vertex 57.732 32 0
    endloop
  endfacet
  facet normal 0 0 -1
    outer loop
      vertex 59.5355 29.4645 0
      vertex 57 31.2679 0
      vertex 57.4142 31.5858 0
    endloop
  endfacet
  facet normal 0 0 -1
    outer loop
      vertex 57.9134 28.3806 0
      vertex 56.5176 31.0681 0
      vertex 57 31.2679 0
    endloop
  endfacet
  facet normal 0 0 -1
    outer loop
      vertex 56 28 0
      vertex 56.5176 31.0681 0
      vertex 57.9134 28.3806 0
    endloop
  endfacet
  facet normal 0 0 -1
    outer loop
      vertex 56 28 0
      vertex 56 31 0
      vertex 56.5176 31.0681 0
    endloop
  endfacet
  facet normal 0 0 -1
    outer loop
      vertex 56 28 0
      vertex 55.4824 31.0681 0
      vertex 56 31 0
    endloop
  endfacet
  facet normal 0 0 -1
    outer loop
      vertex 56 28 0
      vertex 55 31.2679 0
      vertex 55.4824 31.0681 0
    endloop
  endfacet
  facet normal 0 0 -1
    outer loop
      vertex 51 28 0
      vertex 55 31.2679 0
      vertex 56 28 0
    endloop
  endfacet
  facet normal -0 0 -1
    outer loop
      vertex 55 31.2679 0
      vertex 51 28 0
      vertex 54.5858 31.5858 0
    endloop
  endfacet
  facet normal -0 0 -1
    outer loop
      vertex 54.0681 32.4824 0
      vertex 51 28 0
      vertex 54 33 0
    endloop
  endfacet
  facet normal -0 0 -1
    outer loop
      vertex 54.2679 32 0
      vertex 51 28 0
      vertex 54.0681 32.4824 0
    endloop
  endfacet
  facet normal -0 0 -1
    outer loop
      vertex 54.5858 31.5858 0
      vertex 51 28 0
      vertex 54.2679 32 0
    endloop
  endfacet
  facet normal 0 0 -1
    outer loop
      vertex 57.732 34 0
      vertex 60.6194 34.9134 0
      vertex 57.9319 33.5176 0
    endloop
  endfacet
  facet normal -0 0 -1
    outer loop
      vertex 60.6194 34.9134 0
      vertex 57.732 34 0
      vertex 59.5355 36.5355 0
    endloop
  endfacet
  facet normal 0 0 -1
    outer loop
      vertex 57.4142 34.4142 0
      vertex 59.5355 36.5355 0
      vertex 57.732 34 0
    endloop
  endfacet
  facet normal 0 0 -1
    outer loop
      vertex 57 34.732 0
      vertex 59.5355 36.5355 0
      vertex 57.4142 34.4142 0
    endloop
  endfacet
  facet normal -0 0 -1
    outer loop
      vertex 59.5355 36.5355 0
      vertex 57 34.732 0
      vertex 57.9134 37.6194 0
    endloop
  endfacet
  facet normal 0 0 -1
    outer loop
      vertex 56.5176 34.9319 0
      vertex 57.9134 37.6194 0
      vertex 57 34.732 0
    endloop
  endfacet
  facet normal 0 0 -1
    outer loop
      vertex 56 38 0
      vertex 56.5176 34.9319 0
      vertex 56 35 0
    endloop
  endfacet
  facet normal 0 0 -1
    outer loop
      vertex 56.5176 34.9319 0
      vertex 56 38 0
      vertex 57.9134 37.6194 0
    endloop
  endfacet
  facet normal 0 0 -1
    outer loop
      vertex 55.4824 34.9319 0
      vertex 56 38 0
      vertex 56 35 0
    endloop
  endfacet
  facet normal 0 0 -1
    outer loop
      vertex 55 34.732 0
      vertex 56 38 0
      vertex 55.4824 34.9319 0
    endloop
  endfacet
  facet normal 0 0 -1
    outer loop
      vertex 54.5858 34.4142 0
      vertex 56 38 0
      vertex 55 34.732 0
    endloop
  endfacet
  facet normal 0 0 -1
    outer loop
      vertex 54.2679 34 0
      vertex 56 38 0
      vertex 54.5858 34.4142 0
    endloop
  endfacet
  facet normal 0 0 -1
    outer loop
      vertex 51 28 0
      vertex 54.0681 33.5176 0
      vertex 54 33 0
    endloop
  endfacet
  facet normal 0 0 -1
    outer loop
      vertex 51 28 0
      vertex 54.2679 34 0
      vertex 54.0681 33.5176 0
    endloop
  endfacet
  facet normal 0 0 -1
    outer loop
      vertex 0 38 0
      vertex 54.2679 34 0
      vertex 51 28 0
    endloop
  endfacet
  facet normal 0 0 -1
    outer loop
      vertex 0 38 0
      vertex 51 28 0
      vertex 0 10 0
    endloop
  endfacet
  facet normal 0 0 -1
    outer loop
      vertex 54.2679 34 0
      vertex 0 38 0
      vertex 56 38 0
    endloop
  endfacet
  facet normal 0 -1 0
    outer loop
      vertex -5 0 16
      vertex 9.5 0 7
      vertex 9.5 0 16
    endloop
  endfacet
  facet normal 0 -1 0
    outer loop
      vertex -5 0 0
      vertex 9.5 0 7
      vertex -5 0 16
    endloop
  endfacet
  facet normal 0 -1 -0
    outer loop
      vertex 9.5 0 7
      vertex -5 0 0
      vertex 9.6363 0 5.96472
    endloop
  endfacet
  facet normal 0 -1 -0
    outer loop
      vertex 9.6363 0 5.96472
      vertex -5 0 0
      vertex 10.0359 0 5
    endloop
  endfacet
  facet normal 0 -1 -0
    outer loop
      vertex 10.0359 0 5
      vertex -5 0 0
      vertex 10.6716 0 4.17157
    endloop
  endfacet
  facet normal 0 -1 0
    outer loop
      vertex 51 0 0
      vertex 13.5 0 3
      vertex -5 0 0
    endloop
  endfacet
  facet normal 0 -1 -0
    outer loop
      vertex 12.4647 0 3.1363
      vertex -5 0 0
      vertex 13.5 0 3
    endloop
  endfacet
  facet normal 0 -1 -0
    outer loop
      vertex 11.5 0 3.5359
      vertex -5 0 0
      vertex 12.4647 0 3.1363
    endloop
  endfacet
  facet normal 0 -1 -0
    outer loop
      vertex 10.6716 0 4.17157
      vertex -5 0 0
      vertex 11.5 0 3.5359
    endloop
  endfacet
  facet normal 0 -1 0
    outer loop
      vertex 17.5 0 7
      vertex 33.5 0 16
      vertex 17.5 0 16
    endloop
  endfacet
  facet normal 0 -1 0
    outer loop
      vertex 17.5 0 7
      vertex 33.5 0 7
      vertex 33.5 0 16
    endloop
  endfacet
  facet normal 0 -1 0
    outer loop
      vertex 17.3637 0 5.96472
      vertex 33.5 0 7
      vertex 17.5 0 7
    endloop
  endfacet
  facet normal 0 -1 0
    outer loop
      vertex 17.3637 0 5.96472
      vertex 33.6363 0 5.96472
      vertex 33.5 0 7
    endloop
  endfacet
  facet normal 0 -1 0
    outer loop
      vertex 17.3537 0 5.94061
      vertex 33.6363 0 5.96472
      vertex 17.3637 0 5.96472
    endloop
  endfacet
  facet normal 0 -1 0
    outer loop
      vertex 16.9641 0 5
      vertex 33.6363 0 5.96472
      vertex 17.3537 0 5.94061
    endloop
  endfacet
  facet normal 0 -1 0
    outer loop
      vertex 16.9641 0 5
      vertex 34.0359 0 5
      vertex 33.6363 0 5.96472
    endloop
  endfacet
  facet normal 0 -1 0
    outer loop
      vertex 16.3443 0 4.19228
      vertex 34.0359 0 5
      vertex 16.9641 0 5
    endloop
  endfacet
  facet normal 0 -1 0
    outer loop
      vertex 34.6716 0 4.17157
      vertex 16.3443 0 4.19228
      vertex 16.3284 0 4.17157
    endloop
  endfacet
  facet normal 0 -1 0
    outer loop
      vertex 16.3443 0 4.19228
      vertex 34.6716 0 4.17157
      vertex 34.0359 0 5
    endloop
  endfacet
  facet normal 0 -1 0
    outer loop
      vertex 15.5 0 3.5359
      vertex 34.6716 0 4.17157
      vertex 16.3284 0 4.17157
    endloop
  endfacet
  facet normal 0 -1 0
    outer loop
      vertex 15.5 0 3.5359
      vertex 35.5 0 3.5359
      vertex 34.6716 0 4.17157
    endloop
  endfacet
  facet normal 0 -1 0
    outer loop
      vertex 14.5353 0 3.1363
      vertex 35.5 0 3.5359
      vertex 15.5 0 3.5359
    endloop
  endfacet
  facet normal 0 -1 0
    outer loop
      vertex 14.5353 0 3.1363
      vertex 36.4647 0 3.1363
      vertex 35.5 0 3.5359
    endloop
  endfacet
  facet normal 0 -1 0
    outer loop
      vertex 13.5 0 3
      vertex 36.4647 0 3.1363
      vertex 14.5353 0 3.1363
    endloop
  endfacet
  facet normal 0 -1 -0
    outer loop
      vertex 36.4647 0 3.1363
      vertex 13.5 0 3
      vertex 37.5 0 3
    endloop
  endfacet
  facet normal 0 -1 0
    outer loop
      vertex 41.5 0 7
      vertex 51 0 16
      vertex 41.5 0 16
    endloop
  endfacet
  facet normal 0 -1 0
    outer loop
      vertex 51 0 0
      vertex 41.5 0 7
      vertex 41.3637 0 5.96472
    endloop
  endfacet
  facet normal 0 -1 0
    outer loop
      vertex 51 0 0
      vertex 41.3637 0 5.96472
      vertex 41.3537 0 5.94061
    endloop
  endfacet
  facet normal 0 -1 0
    outer loop
      vertex 51 0 0
      vertex 41.3537 0 5.94061
      vertex 40.9641 0 5
    endloop
  endfacet
  facet normal 0 -1 0
    outer loop
      vertex 51 0 0
      vertex 40.9641 0 5
      vertex 40.3443 0 4.19228
    endloop
  endfacet
  facet normal 0 -1 0
    outer loop
      vertex 51 0 0
      vertex 40.3443 0 4.19228
      vertex 40.3284 0 4.17157
    endloop
  endfacet
  facet normal 0 -1 0
    outer loop
      vertex 41.5 0 7
      vertex 51 0 0
      vertex 51 0 16
    endloop
  endfacet
  facet normal 0 -1 0
    outer loop
      vertex 39.5 0 3.5359
      vertex 51 0 0
      vertex 40.3284 0 4.17157
    endloop
  endfacet
  facet normal 0 -1 0
    outer loop
      vertex 38.5353 0 3.1363
      vertex 51 0 0
      vertex 39.5 0 3.5359
    endloop
  endfacet
  facet normal 0 -1 0
    outer loop
      vertex 37.5 0 3
      vertex 51 0 0
      vertex 38.5353 0 3.1363
    endloop
  endfacet
  facet normal 0 -1 0
    outer loop
      vertex 13.5 0 3
      vertex 51 0 0
      vertex 37.5 0 3
    endloop
  endfacet
  facet normal 0 1 0
    outer loop
      vertex 56 38 16
      vertex 41.5 38 7
      vertex 41.5 38 16
    endloop
  endfacet
  facet normal 0 1 -0
    outer loop
      vertex 56 38 0
      vertex 41.5 38 7
      vertex 56 38 16
    endloop
  endfacet
  facet normal 0 1 0
    outer loop
      vertex 41.5 38 7
      vertex 56 38 0
      vertex 41.3637 38 5.96472
    endloop
  endfacet
  facet normal 0 1 0
    outer loop
      vertex 41.3637 38 5.96472
      vertex 56 38 0
      vertex 40.9741 38 5.02412
    endloop
  endfacet
  facet normal 0 1 0
    outer loop
      vertex 40.9741 38 5.02412
      vertex 56 38 0
      vertex 40.9641 38 5
    endloop
  endfacet
  facet normal 0 1 0
    outer loop
      vertex 40.9641 38 5
      vertex 56 38 0
      vertex 40.9482 38 4.97929
    endloop
  endfacet
  facet normal 0 1 0
    outer loop
      vertex 40.9482 38 4.97929
      vertex 56 38 0
      vertex 40.3284 38 4.17157
    endloop
  endfacet
  facet normal 0 1 0
    outer loop
      vertex 0 38 0
      vertex 37.5 38 3
      vertex 56 38 0
    endloop
  endfacet
  facet normal 0 1 0
    outer loop
      vertex 38.5353 38 3.1363
      vertex 56 38 0
      vertex 37.5 38 3
    endloop
  endfacet
  facet normal 0 1 0
    outer loop
      vertex 39.5 38 3.5359
      vertex 56 38 0
      vertex 38.5353 38 3.1363
    endloop
  endfacet
  facet normal 0 1 0
    outer loop
      vertex 40.3284 38 4.17157
      vertex 56 38 0
      vertex 39.5 38 3.5359
    endloop
  endfacet
  facet normal 0 1 -0
    outer loop
      vertex 33.5 38 7
      vertex 17.5 38 16
      vertex 33.5 38 16
    endloop
  endfacet
  facet normal 0 1 0
    outer loop
      vertex 33.5 38 7
      vertex 17.5 38 7
      vertex 17.5 38 16
    endloop
  endfacet
  facet normal 0 1 0
    outer loop
      vertex 33.6363 38 5.96472
      vertex 17.5 38 7
      vertex 33.5 38 7
    endloop
  endfacet
  facet normal 0 1 0
    outer loop
      vertex 33.6363 38 5.96472
      vertex 17.3637 38 5.96472
      vertex 17.5 38 7
    endloop
  endfacet
  facet normal 0 1 0
    outer loop
      vertex 33.6363 38 5.96472
      vertex 16.9741 38 5.02412
      vertex 17.3637 38 5.96472
    endloop
  endfacet
  facet normal 0 1 0
    outer loop
      vertex 34.0359 38 5
      vertex 16.9741 38 5.02412
      vertex 33.6363 38 5.96472
    endloop
  endfacet
  facet normal 0 1 0
    outer loop
      vertex 34.0359 38 5
      vertex 16.9641 38 5
      vertex 16.9741 38 5.02412
    endloop
  endfacet
  facet normal 0 1 0
    outer loop
      vertex 34.0359 38 5
      vertex 16.9482 38 4.97929
      vertex 16.9641 38 5
    endloop
  endfacet
  facet normal 0 1 0
    outer loop
      vertex 34.6716 38 4.17157
      vertex 16.9482 38 4.97929
      vertex 34.0359 38 5
    endloop
  endfacet
  facet normal 0 1 0
    outer loop
      vertex 34.6716 38 4.17157
      vertex 16.3284 38 4.17157
      vertex 16.9482 38 4.97929
    endloop
  endfacet
  facet normal 0 1 0
    outer loop
      vertex 35.5 38 3.5359
      vertex 16.3284 38 4.17157
      vertex 34.6716 38 4.17157
    endloop
  endfacet
  facet normal 0 1 0
    outer loop
      vertex 35.5 38 3.5359
      vertex 15.5 38 3.5359
      vertex 16.3284 38 4.17157
    endloop
  endfacet
  facet normal 0 1 0
    outer loop
      vertex 36.4647 38 3.1363
      vertex 15.5 38 3.5359
      vertex 35.5 38 3.5359
    endloop
  endfacet
  facet normal 0 1 0
    outer loop
      vertex 36.4647 38 3.1363
      vertex 14.5353 38 3.1363
      vertex 15.5 38 3.5359
    endloop
  endfacet
  facet normal 0 1 0
    outer loop
      vertex 37.5 38 3
      vertex 14.5353 38 3.1363
      vertex 36.4647 38 3.1363
    endloop
  endfacet
  facet normal 0 1 0
    outer loop
      vertex 14.5353 38 3.1363
      vertex 37.5 38 3
      vertex 13.5 38 3
    endloop
  endfacet
  facet normal 0 1 -0
    outer loop
      vertex 9.5 38 7
      vertex 0 38 16
      vertex 9.5 38 16
    endloop
  endfacet
  facet normal 0 1 0
    outer loop
      vertex 0 38 0
      vertex 9.5 38 7
      vertex 9.6363 38 5.96472
    endloop
  endfacet
  facet normal 0 1 0
    outer loop
      vertex 0 38 0
      vertex 9.6363 38 5.96472
      vertex 10.0359 38 5
    endloop
  endfacet
  facet normal 0 1 0
    outer loop
      vertex 0 38 0
      vertex 10.0359 38 5
      vertex 10.6716 38 4.17157
    endloop
  endfacet
  facet normal 0 1 0
    outer loop
      vertex 9.5 38 7
      vertex 0 38 0
      vertex 0 38 16
    endloop
  endfacet
  facet normal 0 1 0
    outer loop
      vertex 11.5 38 3.5359
      vertex 0 38 0
      vertex 10.6716 38 4.17157
    endloop
  endfacet
  facet normal 0 1 0
    outer loop
      vertex 12.4647 38 3.1363
      vertex 0 38 0
      vertex 11.5 38 3.5359
    endloop
  endfacet
  facet normal 0 1 0
    outer loop
      vertex 13.5 38 3
      vertex 0 38 0
      vertex 12.4647 38 3.1363
    endloop
  endfacet
  facet normal 0 1 0
    outer loop
      vertex 37.5 38 3
      vertex 0 38 0
      vertex 13.5 38 3
    endloop
  endfacet
  facet normal 0 -1 0
    outer loop
      vertex 51 28 0
      vertex 56 28 16
      vertex 51 28 16
    endloop
  endfacet
  facet normal 0 -1 -0
    outer loop
      vertex 56 28 16
      vertex 51 28 0
      vertex 56 28 0
    endloop
  endfacet
  facet normal 0.980785 0.195091 0
    outer loop
      vertex 61 33 16
      vertex 60.6194 34.9134 0
      vertex 60.6194 34.9134 16
    endloop
  endfacet
  facet normal 0.980785 0.195091 0
    outer loop
      vertex 60.6194 34.9134 0
      vertex 61 33 16
      vertex 61 33 0
    endloop
  endfacet
  facet normal 0.195091 0.980785 -0
    outer loop
      vertex 57.9134 37.6194 0
      vertex 56 38 16
      vertex 57.9134 37.6194 16
    endloop
  endfacet
  facet normal 0.195091 0.980785 0
    outer loop
      vertex 56 38 16
      vertex 57.9134 37.6194 0
      vertex 56 38 0
    endloop
  endfacet
  facet normal 0.83147 -0.55557 0
    outer loop
      vertex 59.5355 29.4645 16
      vertex 60.6194 31.0866 0
      vertex 60.6194 31.0866 16
    endloop
  endfacet
  facet normal 0.83147 -0.55557 0
    outer loop
      vertex 60.6194 31.0866 0
      vertex 59.5355 29.4645 16
      vertex 59.5355 29.4645 0
    endloop
  endfacet
  facet normal 0.555571 -0.831469 0
    outer loop
      vertex 57.9134 28.3806 0
      vertex 59.5355 29.4645 16
      vertex 57.9134 28.3806 16
    endloop
  endfacet
  facet normal 0.555571 -0.831469 0
    outer loop
      vertex 59.5355 29.4645 16
      vertex 57.9134 28.3806 0
      vertex 59.5355 29.4645 0
    endloop
  endfacet
  facet normal 0.19509 -0.980785 0
    outer loop
      vertex 56 28 0
      vertex 57.9134 28.3806 16
      vertex 56 28 16
    endloop
  endfacet
  facet normal 0.19509 -0.980785 0
    outer loop
      vertex 57.9134 28.3806 16
      vertex 56 28 0
      vertex 57.9134 28.3806 0
    endloop
  endfacet
  facet normal 0.55557 0.83147 -0
    outer loop
      vertex 59.5355 36.5355 0
      vertex 57.9134 37.6194 16
      vertex 59.5355 36.5355 16
    endloop
  endfacet
  facet normal 0.55557 0.83147 0
    outer loop
      vertex 57.9134 37.6194 16
      vertex 59.5355 36.5355 0
      vertex 57.9134 37.6194 0
    endloop
  endfacet
  facet normal 0.83147 0.55557 0
    outer loop
      vertex 60.6194 34.9134 16
      vertex 59.5355 36.5355 0
      vertex 59.5355 36.5355 16
    endloop
  endfacet
  facet normal 0.83147 0.55557 0
    outer loop
      vertex 59.5355 36.5355 0
      vertex 60.6194 34.9134 16
      vertex 60.6194 34.9134 0
    endloop
  endfacet
  facet normal 0.980785 -0.195091 0
    outer loop
      vertex 60.6194 31.0866 16
      vertex 61 33 0
      vertex 61 33 16
    endloop
  endfacet
  facet normal 0.980785 -0.195091 0
    outer loop
      vertex 61 33 0
      vertex 60.6194 31.0866 16
      vertex 60.6194 31.0866 0
    endloop
  endfacet
  facet normal 0 1 -0
    outer loop
      vertex 0 10 0
      vertex -5 10 16
      vertex 0 10 16
    endloop
  endfacet
  facet normal 0 1 0
    outer loop
      vertex -5 10 16
      vertex 0 10 0
      vertex -5 10 0
    endloop
  endfacet
  facet normal -0.980785 0.195091 0
    outer loop
      vertex -10 5 0
      vertex -9.6194 6.91342 16
      vertex -9.6194 6.91342 0
    endloop
  endfacet
  facet normal -0.980785 0.195091 0
    outer loop
      vertex -9.6194 6.91342 16
      vertex -10 5 0
      vertex -10 5 16
    endloop
  endfacet
  facet normal -0.980785 -0.195091 0
    outer loop
      vertex -9.6194 3.08658 0
      vertex -10 5 16
      vertex -10 5 0
    endloop
  endfacet
  facet normal -0.980785 -0.195091 0
    outer loop
      vertex -10 5 16
      vertex -9.6194 3.08658 0
      vertex -9.6194 3.08658 16
    endloop
  endfacet
  facet normal -0.195091 0.980785 0
    outer loop
      vertex -5 10 0
      vertex -6.91342 9.6194 16
      vertex -5 10 16
    endloop
  endfacet
  facet normal -0.195091 0.980785 0
    outer loop
      vertex -6.91342 9.6194 16
      vertex -5 10 0
      vertex -6.91342 9.6194 0
    endloop
  endfacet
  facet normal -0.83147 0.55557 0
    outer loop
      vertex -9.6194 6.91342 0
      vertex -8.53553 8.53553 16
      vertex -8.53553 8.53553 0
    endloop
  endfacet
  facet normal -0.83147 0.55557 0
    outer loop
      vertex -8.53553 8.53553 16
      vertex -9.6194 6.91342 0
      vertex -9.6194 6.91342 16
    endloop
  endfacet
  facet normal -0.55557 0.83147 0
    outer loop
      vertex -6.91342 9.6194 0
      vertex -8.53553 8.53553 16
      vertex -6.91342 9.6194 16
    endloop
  endfacet
  facet normal -0.55557 0.83147 0
    outer loop
      vertex -8.53553 8.53553 16
      vertex -6.91342 9.6194 0
      vertex -8.53553 8.53553 0
    endloop
  endfacet
  facet normal -0.55557 -0.83147 0
    outer loop
      vertex -8.53553 1.46447 0
      vertex -6.91342 0.380602 16
      vertex -8.53553 1.46447 16
    endloop
  endfacet
  facet normal -0.55557 -0.83147 -0
    outer loop
      vertex -6.91342 0.380602 16
      vertex -8.53553 1.46447 0
      vertex -6.91342 0.380602 0
    endloop
  endfacet
  facet normal -0.83147 -0.55557 0
    outer loop
      vertex -8.53553 1.46447 0
      vertex -9.6194 3.08658 16
      vertex -9.6194 3.08658 0
    endloop
  endfacet
  facet normal -0.83147 -0.55557 0
    outer loop
      vertex -9.6194 3.08658 16
      vertex -8.53553 1.46447 0
      vertex -8.53553 1.46447 16
    endloop
  endfacet
  facet normal -0.19509 -0.980785 0
    outer loop
      vertex -6.91342 0.380602 0
      vertex -5 0 16
      vertex -6.91342 0.380602 16
    endloop
  endfacet
  facet normal -0.19509 -0.980785 -0
    outer loop
      vertex -5 0 16
      vertex -6.91342 0.380602 0
      vertex -5 0 0
    endloop
  endfacet
  facet normal -0.923879 0 0.382684
    outer loop
      vertex 16.9641 0 5
      vertex 17.3237 3 5.86825
      vertex 16.9641 3 5
    endloop
  endfacet
  facet normal -0.923879 4.67892e-09 0.382684
    outer loop
      vertex 17.3237 3 5.86825
      vertex 16.9641 0 5
      vertex 17.3537 0 5.94061
    endloop
  endfacet
  facet normal -0.92387 0 0.382707
    outer loop
      vertex 16.9641 35 5
      vertex 16.9741 38 5.02412
      vertex 16.9641 38 5
    endloop
  endfacet
  facet normal -0.923877 1.62053e-07 0.382689
    outer loop
      vertex 16.9741 38 5.02412
      vertex 16.9641 35 5
      vertex 17.0041 35 5.09647
    endloop
  endfacet
  facet normal -0.382683 0 0.92388
    outer loop
      vertex 14.5353 3 3.1363
      vertex 15.5 0 3.5359
      vertex 15.5 3 3.5359
    endloop
  endfacet
  facet normal -0.382683 0 0.92388
    outer loop
      vertex 15.5 0 3.5359
      vertex 14.5353 3 3.1363
      vertex 14.5353 0 3.1363
    endloop
  endfacet
  facet normal -0.382683 0 0.92388
    outer loop
      vertex 14.5353 38 3.1363
      vertex 15.5 35 3.5359
      vertex 15.5 38 3.5359
    endloop
  endfacet
  facet normal -0.382683 0 0.92388
    outer loop
      vertex 15.5 35 3.5359
      vertex 14.5353 38 3.1363
      vertex 14.5353 35 3.1363
    endloop
  endfacet
  facet normal -0.793354 9.56557e-08 0.608761
    outer loop
      vertex 16.9641 0 5
      vertex 16.392 3 4.25442
      vertex 16.3443 0 4.19228
    endloop
  endfacet
  facet normal -0.793354 0 0.60876
    outer loop
      vertex 16.392 3 4.25442
      vertex 16.9641 0 5
      vertex 16.9641 3 5
    endloop
  endfacet
  facet normal -0.793359 3.29924e-07 0.608753
    outer loop
      vertex 16.9641 35 5
      vertex 16.9482 38 4.97929
      vertex 16.9005 35 4.91716
    endloop
  endfacet
  facet normal -0.793383 0 0.608723
    outer loop
      vertex 16.9482 38 4.97929
      vertex 16.9641 35 5
      vertex 16.9641 38 5
    endloop
  endfacet
  facet normal 0.991445 -0 0.130526
    outer loop
      vertex 9.5 0 7
      vertex 9.6363 3 5.96472
      vertex 9.5 3 7
    endloop
  endfacet
  facet normal 0.991445 0 0.130526
    outer loop
      vertex 9.6363 3 5.96472
      vertex 9.5 0 7
      vertex 9.6363 0 5.96472
    endloop
  endfacet
  facet normal 0.991445 -0 0.130526
    outer loop
      vertex 9.5 35 7
      vertex 9.6363 38 5.96472
      vertex 9.5 38 7
    endloop
  endfacet
  facet normal 0.991445 0 0.130526
    outer loop
      vertex 9.6363 38 5.96472
      vertex 9.5 35 7
      vertex 9.6363 35 5.96472
    endloop
  endfacet
  facet normal -0.923877 1.62053e-07 0.382689
    outer loop
      vertex 17.3537 0 5.94061
      vertex 17.3637 3 5.96472
      vertex 17.3237 3 5.86825
    endloop
  endfacet
  facet normal -0.92387 0 0.382707
    outer loop
      vertex 17.3637 3 5.96472
      vertex 17.3537 0 5.94061
      vertex 17.3637 0 5.96472
    endloop
  endfacet
  facet normal -0.923879 -4.67892e-09 0.382684
    outer loop
      vertex 17.0041 35 5.09647
      vertex 17.3637 38 5.96472
      vertex 16.9741 38 5.02412
    endloop
  endfacet
  facet normal -0.923879 0 0.382684
    outer loop
      vertex 17.3637 38 5.96472
      vertex 17.0041 35 5.09647
      vertex 17.3637 35 5.96472
    endloop
  endfacet
  facet normal -0.608762 0 0.793353
    outer loop
      vertex 15.5 3 3.5359
      vertex 16.3284 0 4.17157
      vertex 16.3284 3 4.17157
    endloop
  endfacet
  facet normal -0.608762 0 0.793353
    outer loop
      vertex 16.3284 0 4.17157
      vertex 15.5 3 3.5359
      vertex 15.5 0 3.5359
    endloop
  endfacet
  facet normal -0.608762 0 0.793353
    outer loop
      vertex 15.5 38 3.5359
      vertex 16.3284 35 4.17157
      vertex 16.3284 38 4.17157
    endloop
  endfacet
  facet normal -0.608762 0 0.793353
    outer loop
      vertex 16.3284 35 4.17157
      vertex 15.5 38 3.5359
      vertex 15.5 35 3.5359
    endloop
  endfacet
  facet normal -0.130526 0 0.991445
    outer loop
      vertex 13.5 38 3
      vertex 14.5353 35 3.1363
      vertex 14.5353 38 3.1363
    endloop
  endfacet
  facet normal -0.130526 0 0.991445
    outer loop
      vertex 14.5353 35 3.1363
      vertex 13.5 38 3
      vertex 13.5 35 3
    endloop
  endfacet
  facet normal -0.130526 0 0.991445
    outer loop
      vertex 13.5 3 3
      vertex 14.5353 0 3.1363
      vertex 14.5353 3 3.1363
    endloop
  endfacet
  facet normal -0.130526 0 0.991445
    outer loop
      vertex 14.5353 0 3.1363
      vertex 13.5 3 3
      vertex 13.5 0 3
    endloop
  endfacet
  facet normal 0.382683 0 0.92388
    outer loop
      vertex 11.5 3 3.5359
      vertex 12.4647 0 3.1363
      vertex 12.4647 3 3.1363
    endloop
  endfacet
  facet normal 0.382683 0 0.92388
    outer loop
      vertex 12.4647 0 3.1363
      vertex 11.5 3 3.5359
      vertex 11.5 0 3.5359
    endloop
  endfacet
  facet normal 0.382683 0 0.92388
    outer loop
      vertex 11.5 38 3.5359
      vertex 12.4647 35 3.1363
      vertex 12.4647 38 3.1363
    endloop
  endfacet
  facet normal 0.382683 0 0.92388
    outer loop
      vertex 12.4647 35 3.1363
      vertex 11.5 38 3.5359
      vertex 11.5 35 3.5359
    endloop
  endfacet
  facet normal 0.923879 -0 0.382684
    outer loop
      vertex 9.6363 0 5.96472
      vertex 10.0359 3 5
      vertex 9.6363 3 5.96472
    endloop
  endfacet
  facet normal 0.923879 0 0.382684
    outer loop
      vertex 10.0359 3 5
      vertex 9.6363 0 5.96472
      vertex 10.0359 0 5
    endloop
  endfacet
  facet normal 0.923879 -0 0.382684
    outer loop
      vertex 9.6363 35 5.96472
      vertex 10.0359 38 5
      vertex 9.6363 38 5.96472
    endloop
  endfacet
  facet normal 0.923879 0 0.382684
    outer loop
      vertex 10.0359 38 5
      vertex 9.6363 35 5.96472
      vertex 10.0359 35 5
    endloop
  endfacet
  facet normal -0.991445 0 0.130527
    outer loop
      vertex 17.3637 0 5.96472
      vertex 17.5 3 7
      vertex 17.3637 3 5.96472
    endloop
  endfacet
  facet normal -0.991445 0 0.130527
    outer loop
      vertex 17.5 3 7
      vertex 17.3637 0 5.96472
      vertex 17.5 0 7
    endloop
  endfacet
  facet normal -0.991445 0 0.130527
    outer loop
      vertex 17.3637 35 5.96472
      vertex 17.5 38 7
      vertex 17.3637 38 5.96472
    endloop
  endfacet
  facet normal -0.991445 0 0.130527
    outer loop
      vertex 17.5 38 7
      vertex 17.3637 35 5.96472
      vertex 17.5 35 7
    endloop
  endfacet
  facet normal -0.793347 0 0.608769
    outer loop
      vertex 16.3443 0 4.19228
      vertex 16.3284 3 4.17157
      vertex 16.3284 0 4.17157
    endloop
  endfacet
  facet normal -0.793351 -4.83803e-08 0.608765
    outer loop
      vertex 16.3284 3 4.17157
      vertex 16.3443 0 4.19228
      vertex 16.392 3 4.25442
    endloop
  endfacet
  facet normal -0.793353 0 0.608762
    outer loop
      vertex 16.9005 35 4.91716
      vertex 16.3284 38 4.17157
      vertex 16.3284 35 4.17157
    endloop
  endfacet
  facet normal -0.793353 4.19691e-08 0.608762
    outer loop
      vertex 16.3284 38 4.17157
      vertex 16.9005 35 4.91716
      vertex 16.9482 38 4.97929
    endloop
  endfacet
  facet normal 0.130526 0 0.991445
    outer loop
      vertex 12.4647 38 3.1363
      vertex 13.5 35 3
      vertex 13.5 38 3
    endloop
  endfacet
  facet normal 0.130526 0 0.991445
    outer loop
      vertex 13.5 35 3
      vertex 12.4647 38 3.1363
      vertex 12.4647 35 3.1363
    endloop
  endfacet
  facet normal 0.130526 0 0.991445
    outer loop
      vertex 12.4647 3 3.1363
      vertex 13.5 0 3
      vertex 13.5 3 3
    endloop
  endfacet
  facet normal 0.130526 0 0.991445
    outer loop
      vertex 13.5 0 3
      vertex 12.4647 3 3.1363
      vertex 12.4647 0 3.1363
    endloop
  endfacet
  facet normal 0.793353 -0 0.608761
    outer loop
      vertex 10.0359 0 5
      vertex 10.6716 3 4.17157
      vertex 10.0359 3 5
    endloop
  endfacet
  facet normal 0.793353 0 0.608761
    outer loop
      vertex 10.6716 3 4.17157
      vertex 10.0359 0 5
      vertex 10.6716 0 4.17157
    endloop
  endfacet
  facet normal 0.793353 -0 0.608761
    outer loop
      vertex 10.0359 35 5
      vertex 10.6716 38 4.17157
      vertex 10.0359 38 5
    endloop
  endfacet
  facet normal 0.793353 0 0.608761
    outer loop
      vertex 10.6716 38 4.17157
      vertex 10.0359 35 5
      vertex 10.6716 35 4.17157
    endloop
  endfacet
  facet normal 0.608762 0 0.793353
    outer loop
      vertex 10.6716 3 4.17157
      vertex 11.5 0 3.5359
      vertex 11.5 3 3.5359
    endloop
  endfacet
  facet normal 0.608762 0 0.793353
    outer loop
      vertex 11.5 0 3.5359
      vertex 10.6716 3 4.17157
      vertex 10.6716 0 4.17157
    endloop
  endfacet
  facet normal 0.608762 0 0.793353
    outer loop
      vertex 10.6716 38 4.17157
      vertex 11.5 35 3.5359
      vertex 11.5 38 3.5359
    endloop
  endfacet
  facet normal 0.608762 0 0.793353
    outer loop
      vertex 11.5 35 3.5359
      vertex 10.6716 38 4.17157
      vertex 10.6716 35 4.17157
    endloop
  endfacet
  facet normal 1 -0 0
    outer loop
      vertex 9.5 0 16
      vertex 9.5 3 7
      vertex 9.5 3 16
    endloop
  endfacet
  facet normal 1 0 0
    outer loop
      vertex 9.5 3 7
      vertex 9.5 0 16
      vertex 9.5 0 7
    endloop
  endfacet
  facet normal 1 -0 0
    outer loop
      vertex 9.5 35 16
      vertex 9.5 38 7
      vertex 9.5 38 16
    endloop
  endfacet
  facet normal 1 0 0
    outer loop
      vertex 9.5 38 7
      vertex 9.5 35 16
      vertex 9.5 35 7
    endloop
  endfacet
  facet normal -1 0 0
    outer loop
      vertex 17.5 0 7
      vertex 17.5 3 16
      vertex 17.5 3 7
    endloop
  endfacet
  facet normal -1 -0 0
    outer loop
      vertex 17.5 3 16
      vertex 17.5 0 7
      vertex 17.5 0 16
    endloop
  endfacet
  facet normal -1 0 0
    outer loop
      vertex 17.5 35 7
      vertex 17.5 38 16
      vertex 17.5 38 7
    endloop
  endfacet
  facet normal -1 -0 0
    outer loop
      vertex 17.5 38 16
      vertex 17.5 35 7
      vertex 17.5 35 16
    endloop
  endfacet
  facet normal 0.130526 0 0.991445
    outer loop
      vertex 36.4647 38 3.1363
      vertex 37.5 35 3
      vertex 37.5 38 3
    endloop
  endfacet
  facet normal 0.130526 0 0.991445
    outer loop
      vertex 37.5 35 3
      vertex 36.4647 38 3.1363
      vertex 36.4647 35 3.1363
    endloop
  endfacet
  facet normal 0.130526 0 0.991445
    outer loop
      vertex 36.4647 3 3.1363
      vertex 37.5 0 3
      vertex 37.5 3 3
    endloop
  endfacet
  facet normal 0.130526 0 0.991445
    outer loop
      vertex 37.5 0 3
      vertex 36.4647 3 3.1363
      vertex 36.4647 0 3.1363
    endloop
  endfacet
  facet normal -0.923879 0 0.382684
    outer loop
      vertex 40.9641 0 5
      vertex 41.3237 3 5.86825
      vertex 40.9641 3 5
    endloop
  endfacet
  facet normal -0.923879 -5.37524e-07 0.382686
    outer loop
      vertex 41.3237 3 5.86825
      vertex 40.9641 0 5
      vertex 41.3537 0 5.94061
    endloop
  endfacet
  facet normal -0.92387 0 0.382707
    outer loop
      vertex 40.9641 35 5
      vertex 40.9741 38 5.02412
      vertex 40.9641 38 5
    endloop
  endfacet
  facet normal -0.923871 1.52073e-08 0.382705
    outer loop
      vertex 40.9741 38 5.02412
      vertex 40.9641 35 5
      vertex 41.0041 35 5.09647
    endloop
  endfacet
  facet normal -0.382683 0 0.92388
    outer loop
      vertex 38.5353 3 3.1363
      vertex 39.5 0 3.5359
      vertex 39.5 3 3.5359
    endloop
  endfacet
  facet normal -0.382683 0 0.92388
    outer loop
      vertex 39.5 0 3.5359
      vertex 38.5353 3 3.1363
      vertex 38.5353 0 3.1363
    endloop
  endfacet
  facet normal -0.382683 0 0.92388
    outer loop
      vertex 38.5353 38 3.1363
      vertex 39.5 35 3.5359
      vertex 39.5 38 3.5359
    endloop
  endfacet
  facet normal -0.382683 0 0.92388
    outer loop
      vertex 39.5 35 3.5359
      vertex 38.5353 38 3.1363
      vertex 38.5353 35 3.1363
    endloop
  endfacet
  facet normal -0.793354 9.56557e-08 0.608761
    outer loop
      vertex 40.9641 0 5
      vertex 40.392 3 4.25442
      vertex 40.3443 0 4.19228
    endloop
  endfacet
  facet normal -0.793354 0 0.60876
    outer loop
      vertex 40.392 3 4.25442
      vertex 40.9641 0 5
      vertex 40.9641 3 5
    endloop
  endfacet
  facet normal -0.793351 -4.83803e-08 0.608765
    outer loop
      vertex 40.9641 35 5
      vertex 40.9482 38 4.97929
      vertex 40.9005 35 4.91716
    endloop
  endfacet
  facet normal -0.793347 0 0.608769
    outer loop
      vertex 40.9482 38 4.97929
      vertex 40.9641 35 5
      vertex 40.9641 38 5
    endloop
  endfacet
  facet normal 0.991445 -0 0.130525
    outer loop
      vertex 33.5 0 7
      vertex 33.6363 3 5.96472
      vertex 33.5 3 7
    endloop
  endfacet
  facet normal 0.991445 0 0.130525
    outer loop
      vertex 33.6363 3 5.96472
      vertex 33.5 0 7
      vertex 33.6363 0 5.96472
    endloop
  endfacet
  facet normal 0.991445 -0 0.130525
    outer loop
      vertex 33.5 35 7
      vertex 33.6363 38 5.96472
      vertex 33.5 38 7
    endloop
  endfacet
  facet normal 0.991445 0 0.130525
    outer loop
      vertex 33.6363 38 5.96472
      vertex 33.5 35 7
      vertex 33.6363 35 5.96472
    endloop
  endfacet
  facet normal -0.923883 -8.65878e-07 0.382674
    outer loop
      vertex 41.3537 0 5.94061
      vertex 41.3637 3 5.96472
      vertex 41.3237 3 5.86825
    endloop
  endfacet
  facet normal -0.923922 0 0.382582
    outer loop
      vertex 41.3637 3 5.96472
      vertex 41.3537 0 5.94061
      vertex 41.3637 0 5.96472
    endloop
  endfacet
  facet normal -0.92388 -6.3725e-07 0.382682
    outer loop
      vertex 41.0041 35 5.09647
      vertex 41.3637 38 5.96472
      vertex 40.9741 38 5.02412
    endloop
  endfacet
  facet normal -0.923881 0 0.38268
    outer loop
      vertex 41.3637 38 5.96472
      vertex 41.0041 35 5.09647
      vertex 41.3637 35 5.96472
    endloop
  endfacet
  facet normal -0.608762 0 0.793353
    outer loop
      vertex 39.5 3 3.5359
      vertex 40.3284 0 4.17157
      vertex 40.3284 3 4.17157
    endloop
  endfacet
  facet normal -0.608762 0 0.793353
    outer loop
      vertex 40.3284 0 4.17157
      vertex 39.5 3 3.5359
      vertex 39.5 0 3.5359
    endloop
  endfacet
  facet normal -0.608762 0 0.793353
    outer loop
      vertex 39.5 38 3.5359
      vertex 40.3284 35 4.17157
      vertex 40.3284 38 4.17157
    endloop
  endfacet
  facet normal -0.608762 0 0.793353
    outer loop
      vertex 40.3284 35 4.17157
      vertex 39.5 38 3.5359
      vertex 39.5 35 3.5359
    endloop
  endfacet
  facet normal -0.130526 0 0.991445
    outer loop
      vertex 37.5 38 3
      vertex 38.5353 35 3.1363
      vertex 38.5353 38 3.1363
    endloop
  endfacet
  facet normal -0.130526 0 0.991445
    outer loop
      vertex 38.5353 35 3.1363
      vertex 37.5 38 3
      vertex 37.5 35 3
    endloop
  endfacet
  facet normal -0.130526 0 0.991445
    outer loop
      vertex 37.5 3 3
      vertex 38.5353 0 3.1363
      vertex 38.5353 3 3.1363
    endloop
  endfacet
  facet normal -0.130526 0 0.991445
    outer loop
      vertex 38.5353 0 3.1363
      vertex 37.5 3 3
      vertex 37.5 0 3
    endloop
  endfacet
  facet normal 0.382684 0 0.923879
    outer loop
      vertex 35.5 3 3.5359
      vertex 36.4647 0 3.1363
      vertex 36.4647 3 3.1363
    endloop
  endfacet
  facet normal 0.382684 0 0.923879
    outer loop
      vertex 36.4647 0 3.1363
      vertex 35.5 3 3.5359
      vertex 35.5 0 3.5359
    endloop
  endfacet
  facet normal 0.382684 0 0.923879
    outer loop
      vertex 35.5 38 3.5359
      vertex 36.4647 35 3.1363
      vertex 36.4647 38 3.1363
    endloop
  endfacet
  facet normal 0.382684 0 0.923879
    outer loop
      vertex 36.4647 35 3.1363
      vertex 35.5 38 3.5359
      vertex 35.5 35 3.5359
    endloop
  endfacet
  facet normal 0.608762 0 0.793353
    outer loop
      vertex 34.6716 3 4.17157
      vertex 35.5 0 3.5359
      vertex 35.5 3 3.5359
    endloop
  endfacet
  facet normal 0.608762 0 0.793353
    outer loop
      vertex 35.5 0 3.5359
      vertex 34.6716 3 4.17157
      vertex 34.6716 0 4.17157
    endloop
  endfacet
  facet normal 0.608762 0 0.793353
    outer loop
      vertex 34.6716 38 4.17157
      vertex 35.5 35 3.5359
      vertex 35.5 38 3.5359
    endloop
  endfacet
  facet normal 0.608762 0 0.793353
    outer loop
      vertex 35.5 35 3.5359
      vertex 34.6716 38 4.17157
      vertex 34.6716 35 4.17157
    endloop
  endfacet
  facet normal -0.991445 0 0.130528
    outer loop
      vertex 41.3637 0 5.96472
      vertex 41.5 3 7
      vertex 41.3637 3 5.96472
    endloop
  endfacet
  facet normal -0.991445 0 0.130528
    outer loop
      vertex 41.5 3 7
      vertex 41.3637 0 5.96472
      vertex 41.5 0 7
    endloop
  endfacet
  facet normal -0.991445 0 0.130528
    outer loop
      vertex 41.3637 35 5.96472
      vertex 41.5 38 7
      vertex 41.3637 38 5.96472
    endloop
  endfacet
  facet normal -0.991445 0 0.130528
    outer loop
      vertex 41.5 38 7
      vertex 41.3637 35 5.96472
      vertex 41.5 35 7
    endloop
  endfacet
  facet normal -0.793347 0 0.608769
    outer loop
      vertex 40.3443 0 4.19228
      vertex 40.3284 3 4.17157
      vertex 40.3284 0 4.17157
    endloop
  endfacet
  facet normal -0.793351 -4.83803e-08 0.608765
    outer loop
      vertex 40.3284 3 4.17157
      vertex 40.3443 0 4.19228
      vertex 40.392 3 4.25442
    endloop
  endfacet
  facet normal -0.793354 0 0.608761
    outer loop
      vertex 40.9005 35 4.91716
      vertex 40.3284 38 4.17157
      vertex 40.3284 35 4.17157
    endloop
  endfacet
  facet normal -0.793354 8.07695e-08 0.608761
    outer loop
      vertex 40.3284 38 4.17157
      vertex 40.9005 35 4.91716
      vertex 40.9482 38 4.97929
    endloop
  endfacet
  facet normal 0.92388 -0 0.382683
    outer loop
      vertex 33.6363 0 5.96472
      vertex 34.0359 3 5
      vertex 33.6363 3 5.96472
    endloop
  endfacet
  facet normal 0.92388 0 0.382683
    outer loop
      vertex 34.0359 3 5
      vertex 33.6363 0 5.96472
      vertex 34.0359 0 5
    endloop
  endfacet
  facet normal 0.92388 -0 0.382683
    outer loop
      vertex 33.6363 35 5.96472
      vertex 34.0359 38 5
      vertex 33.6363 38 5.96472
    endloop
  endfacet
  facet normal 0.92388 0 0.382683
    outer loop
      vertex 34.0359 38 5
      vertex 33.6363 35 5.96472
      vertex 34.0359 35 5
    endloop
  endfacet
  facet normal 0.793352 -0 0.608763
    outer loop
      vertex 34.0359 0 5
      vertex 34.6716 3 4.17157
      vertex 34.0359 3 5
    endloop
  endfacet
  facet normal 0.793352 0 0.608763
    outer loop
      vertex 34.6716 3 4.17157
      vertex 34.0359 0 5
      vertex 34.6716 0 4.17157
    endloop
  endfacet
  facet normal 0.793352 -0 0.608763
    outer loop
      vertex 34.0359 35 5
      vertex 34.6716 38 4.17157
      vertex 34.0359 38 5
    endloop
  endfacet
  facet normal 0.793352 0 0.608763
    outer loop
      vertex 34.6716 38 4.17157
      vertex 34.0359 35 5
      vertex 34.6716 35 4.17157
    endloop
  endfacet
  facet normal 1 -0 0
    outer loop
      vertex 33.5 0 16
      vertex 33.5 3 7
      vertex 33.5 3 16
    endloop
  endfacet
  facet normal 1 0 0
    outer loop
      vertex 33.5 3 7
      vertex 33.5 0 16
      vertex 33.5 0 7
    endloop
  endfacet
  facet normal 1 -0 0
    outer loop
      vertex 33.5 35 16
      vertex 33.5 38 7
      vertex 33.5 38 16
    endloop
  endfacet
  facet normal 1 0 0
    outer loop
      vertex 33.5 38 7
      vertex 33.5 35 16
      vertex 33.5 35 7
    endloop
  endfacet
  facet normal -1 0 0
    outer loop
      vertex 41.5 0 7
      vertex 41.5 3 16
      vertex 41.5 3 7
    endloop
  endfacet
  facet normal -1 -0 0
    outer loop
      vertex 41.5 3 16
      vertex 41.5 0 7
      vertex 41.5 0 16
    endloop
  endfacet
  facet normal -1 0 0
    outer loop
      vertex 41.5 35 7
      vertex 41.5 38 16
      vertex 41.5 38 7
    endloop
  endfacet
  facet normal -1 -0 0
    outer loop
      vertex 41.5 38 16
      vertex 41.5 35 7
      vertex 41.5 35 16
    endloop
  endfacet
  facet normal -0.991445 -0.130528 0
    outer loop
      vertex 58 33 0
      vertex 57.9319 33.5176 16
      vertex 57.9319 33.5176 0
    endloop
  endfacet
  facet normal -0.991445 -0.130528 0
    outer loop
      vertex 57.9319 33.5176 16
      vertex 58 33 0
      vertex 58 33 16
    endloop
  endfacet
  facet normal -0.382687 -0.923878 0
    outer loop
      vertex 56.5176 34.9319 0
      vertex 57 34.732 16
      vertex 56.5176 34.9319 16
    endloop
  endfacet
  facet normal -0.382687 -0.923878 -0
    outer loop
      vertex 57 34.732 16
      vertex 56.5176 34.9319 0
      vertex 57 34.732 0
    endloop
  endfacet
  facet normal -0.793358 0.608755 0
    outer loop
      vertex 57.4142 31.5858 0
      vertex 57.732 32 16
      vertex 57.732 32 0
    endloop
  endfacet
  facet normal -0.793358 0.608755 0
    outer loop
      vertex 57.732 32 16
      vertex 57.4142 31.5858 0
      vertex 57.4142 31.5858 16
    endloop
  endfacet
  facet normal -0.608759 0.793355 0
    outer loop
      vertex 57.4142 31.5858 0
      vertex 57 31.2679 16
      vertex 57.4142 31.5858 16
    endloop
  endfacet
  facet normal -0.608759 0.793355 0
    outer loop
      vertex 57 31.2679 16
      vertex 57.4142 31.5858 0
      vertex 57 31.2679 0
    endloop
  endfacet
  facet normal 0.130525 0.991445 -0
    outer loop
      vertex 56 31 0
      vertex 55.4824 31.0681 16
      vertex 56 31 16
    endloop
  endfacet
  facet normal 0.130525 0.991445 0
    outer loop
      vertex 55.4824 31.0681 16
      vertex 56 31 0
      vertex 55.4824 31.0681 0
    endloop
  endfacet
  facet normal -0.608755 -0.793358 0
    outer loop
      vertex 57 34.732 0
      vertex 57.4142 34.4142 16
      vertex 57 34.732 16
    endloop
  endfacet
  facet normal -0.608755 -0.793358 -0
    outer loop
      vertex 57.4142 34.4142 16
      vertex 57 34.732 0
      vertex 57.4142 34.4142 0
    endloop
  endfacet
  facet normal 0.130528 -0.991445 0
    outer loop
      vertex 55.4824 34.9319 0
      vertex 56 35 16
      vertex 55.4824 34.9319 16
    endloop
  endfacet
  facet normal 0.130528 -0.991445 0
    outer loop
      vertex 56 35 16
      vertex 55.4824 34.9319 0
      vertex 56 35 0
    endloop
  endfacet
  facet normal 0.608755 -0.793358 0
    outer loop
      vertex 54.5858 34.4142 0
      vertex 55 34.732 16
      vertex 54.5858 34.4142 16
    endloop
  endfacet
  facet normal 0.608755 -0.793358 0
    outer loop
      vertex 55 34.732 16
      vertex 54.5858 34.4142 0
      vertex 55 34.732 0
    endloop
  endfacet
  facet normal 0.793355 -0.608759 0
    outer loop
      vertex 54.2679 34 16
      vertex 54.5858 34.4142 0
      vertex 54.5858 34.4142 16
    endloop
  endfacet
  facet normal 0.793355 -0.608759 0
    outer loop
      vertex 54.5858 34.4142 0
      vertex 54.2679 34 16
      vertex 54.2679 34 0
    endloop
  endfacet
  facet normal -0.991445 0.130528 0
    outer loop
      vertex 57.9319 32.4824 0
      vertex 58 33 16
      vertex 58 33 0
    endloop
  endfacet
  facet normal -0.991445 0.130528 0
    outer loop
      vertex 58 33 16
      vertex 57.9319 32.4824 0
      vertex 57.9319 32.4824 16
    endloop
  endfacet
  facet normal 0.382684 0.923879 -0
    outer loop
      vertex 55.4824 31.0681 0
      vertex 55 31.2679 16
      vertex 55.4824 31.0681 16
    endloop
  endfacet
  facet normal 0.382684 0.923879 0
    outer loop
      vertex 55 31.2679 16
      vertex 55.4824 31.0681 0
      vertex 55 31.2679 0
    endloop
  endfacet
  facet normal -0.923878 -0.382687 0
    outer loop
      vertex 57.9319 33.5176 0
      vertex 57.732 34 16
      vertex 57.732 34 0
    endloop
  endfacet
  facet normal -0.923878 -0.382687 0
    outer loop
      vertex 57.732 34 16
      vertex 57.9319 33.5176 0
      vertex 57.9319 33.5176 16
    endloop
  endfacet
  facet normal -0.793358 -0.608755 0
    outer loop
      vertex 57.732 34 0
      vertex 57.4142 34.4142 16
      vertex 57.4142 34.4142 0
    endloop
  endfacet
  facet normal -0.793358 -0.608755 0
    outer loop
      vertex 57.4142 34.4142 16
      vertex 57.732 34 0
      vertex 57.732 34 16
    endloop
  endfacet
  facet normal -0.130528 -0.991445 0
    outer loop
      vertex 56 35 0
      vertex 56.5176 34.9319 16
      vertex 56 35 16
    endloop
  endfacet
  facet normal -0.130528 -0.991445 -0
    outer loop
      vertex 56.5176 34.9319 16
      vertex 56 35 0
      vertex 56.5176 34.9319 0
    endloop
  endfacet
  facet normal 0.991446 0.130521 0
    outer loop
      vertex 54.0681 32.4824 16
      vertex 54 33 0
      vertex 54 33 16
    endloop
  endfacet
  facet normal 0.991446 0.130521 0
    outer loop
      vertex 54 33 0
      vertex 54.0681 32.4824 16
      vertex 54.0681 32.4824 0
    endloop
  endfacet
  facet normal 0.923878 -0.382687 0
    outer loop
      vertex 54.0681 33.5176 16
      vertex 54.2679 34 0
      vertex 54.2679 34 16
    endloop
  endfacet
  facet normal 0.923878 -0.382687 0
    outer loop
      vertex 54.2679 34 0
      vertex 54.0681 33.5176 16
      vertex 54.0681 33.5176 0
    endloop
  endfacet
  facet normal 0.382687 -0.923878 0
    outer loop
      vertex 55 34.732 0
      vertex 55.4824 34.9319 16
      vertex 55 34.732 16
    endloop
  endfacet
  facet normal 0.382687 -0.923878 0
    outer loop
      vertex 55.4824 34.9319 16
      vertex 55 34.732 0
      vertex 55.4824 34.9319 0
    endloop
  endfacet
  facet normal -0.382684 0.923879 0
    outer loop
      vertex 57 31.2679 0
      vertex 56.5176 31.0681 16
      vertex 57 31.2679 16
    endloop
  endfacet
  facet normal -0.382684 0.923879 0
    outer loop
      vertex 56.5176 31.0681 16
      vertex 57 31.2679 0
      vertex 56.5176 31.0681 0
    endloop
  endfacet
  facet normal -0.130525 0.991445 0
    outer loop
      vertex 56.5176 31.0681 0
      vertex 56 31 16
      vertex 56.5176 31.0681 16
    endloop
  endfacet
  facet normal -0.130525 0.991445 0
    outer loop
      vertex 56 31 16
      vertex 56.5176 31.0681 0
      vertex 56 31 0
    endloop
  endfacet
  facet normal 0.608759 0.793355 -0
    outer loop
      vertex 55 31.2679 0
      vertex 54.5858 31.5858 16
      vertex 55 31.2679 16
    endloop
  endfacet
  facet normal 0.608759 0.793355 0
    outer loop
      vertex 54.5858 31.5858 16
      vertex 55 31.2679 0
      vertex 54.5858 31.5858 0
    endloop
  endfacet
  facet normal 0.923878 0.382687 0
    outer loop
      vertex 54.2679 32 16
      vertex 54.0681 32.4824 0
      vertex 54.0681 32.4824 16
    endloop
  endfacet
  facet normal 0.923878 0.382687 0
    outer loop
      vertex 54.0681 32.4824 0
      vertex 54.2679 32 16
      vertex 54.2679 32 0
    endloop
  endfacet
  facet normal 0.991446 -0.130521 0
    outer loop
      vertex 54 33 16
      vertex 54.0681 33.5176 0
      vertex 54.0681 33.5176 16
    endloop
  endfacet
  facet normal 0.991446 -0.130521 0
    outer loop
      vertex 54.0681 33.5176 0
      vertex 54 33 16
      vertex 54 33 0
    endloop
  endfacet
  facet normal -0.923878 0.382687 0
    outer loop
      vertex 57.732 32 0
      vertex 57.9319 32.4824 16
      vertex 57.9319 32.4824 0
    endloop
  endfacet
  facet normal -0.923878 0.382687 0
    outer loop
      vertex 57.9319 32.4824 16
      vertex 57.732 32 0
      vertex 57.732 32 16
    endloop
  endfacet
  facet normal 0.793355 0.608759 0
    outer loop
      vertex 54.5858 31.5858 16
      vertex 54.2679 32 0
      vertex 54.2679 32 16
    endloop
  endfacet
  facet normal 0.793355 0.608759 0
    outer loop
      vertex 54.2679 32 0
      vertex 54.5858 31.5858 16
      vertex 54.5858 31.5858 0
    endloop
  endfacet
  facet normal -0.991445 -0.130525 0
    outer loop
      vertex -3 5 0
      vertex -3.06815 5.51764 16
      vertex -3.06815 5.51764 0
    endloop
  endfacet
  facet normal -0.991445 -0.130525 0
    outer loop
      vertex -3.06815 5.51764 16
      vertex -3 5 0
      vertex -3 5 16
    endloop
  endfacet
  facet normal 0.991445 -0.130527 0
    outer loop
      vertex -7 5 16
      vertex -6.93185 5.51764 0
      vertex -6.93185 5.51764 16
    endloop
  endfacet
  facet normal 0.991445 -0.130527 0
    outer loop
      vertex -6.93185 5.51764 0
      vertex -7 5 16
      vertex -7 5 0
    endloop
  endfacet
  facet normal -0.130527 -0.991445 0
    outer loop
      vertex -5 7 0
      vertex -4.48236 6.93185 16
      vertex -5 7 16
    endloop
  endfacet
  facet normal -0.130527 -0.991445 -0
    outer loop
      vertex -4.48236 6.93185 16
      vertex -5 7 0
      vertex -4.48236 6.93185 0
    endloop
  endfacet
  facet normal -0.130525 0.991445 0
    outer loop
      vertex -4.48236 3.06815 0
      vertex -5 3 16
      vertex -4.48236 3.06815 16
    endloop
  endfacet
  facet normal -0.130525 0.991445 0
    outer loop
      vertex -5 3 16
      vertex -4.48236 3.06815 0
      vertex -5 3 0
    endloop
  endfacet
  facet normal -0.793354 -0.608761 0
    outer loop
      vertex -3.26795 6 0
      vertex -3.58579 6.41421 16
      vertex -3.58579 6.41421 0
    endloop
  endfacet
  facet normal -0.793354 -0.608761 0
    outer loop
      vertex -3.58579 6.41421 16
      vertex -3.26795 6 0
      vertex -3.26795 6 16
    endloop
  endfacet
  facet normal -0.923879 -0.382684 0
    outer loop
      vertex -3.06815 5.51764 0
      vertex -3.26795 6 16
      vertex -3.26795 6 0
    endloop
  endfacet
  facet normal -0.923879 -0.382684 0
    outer loop
      vertex -3.26795 6 16
      vertex -3.06815 5.51764 0
      vertex -3.06815 5.51764 16
    endloop
  endfacet
  facet normal 0.608761 -0.793354 0
    outer loop
      vertex -6.41421 6.41421 0
      vertex -6 6.73205 16
      vertex -6.41421 6.41421 16
    endloop
  endfacet
  facet normal 0.608761 -0.793354 0
    outer loop
      vertex -6 6.73205 16
      vertex -6.41421 6.41421 0
      vertex -6 6.73205 0
    endloop
  endfacet
  facet normal 0.130527 -0.991445 0
    outer loop
      vertex -5.51764 6.93185 0
      vertex -5 7 16
      vertex -5.51764 6.93185 16
    endloop
  endfacet
  facet normal 0.130527 -0.991445 0
    outer loop
      vertex -5 7 16
      vertex -5.51764 6.93185 0
      vertex -5 7 0
    endloop
  endfacet
  facet normal -0.382684 -0.923879 0
    outer loop
      vertex -4.48236 6.93185 0
      vertex -4 6.73205 16
      vertex -4.48236 6.93185 16
    endloop
  endfacet
  facet normal -0.382684 -0.923879 -0
    outer loop
      vertex -4 6.73205 16
      vertex -4.48236 6.93185 0
      vertex -4 6.73205 0
    endloop
  endfacet
  facet normal -0.60876 -0.793354 0
    outer loop
      vertex -4 6.73205 0
      vertex -3.58579 6.41421 16
      vertex -4 6.73205 16
    endloop
  endfacet
  facet normal -0.60876 -0.793354 -0
    outer loop
      vertex -3.58579 6.41421 16
      vertex -4 6.73205 0
      vertex -3.58579 6.41421 0
    endloop
  endfacet
  facet normal 0.793354 -0.608761 0
    outer loop
      vertex -6.73205 6 16
      vertex -6.41421 6.41421 0
      vertex -6.41421 6.41421 16
    endloop
  endfacet
  facet normal 0.793354 -0.608761 0
    outer loop
      vertex -6.41421 6.41421 0
      vertex -6.73205 6 16
      vertex -6.73205 6 0
    endloop
  endfacet
  facet normal 0.923879 -0.382684 0
    outer loop
      vertex -6.93185 5.51764 16
      vertex -6.73205 6 0
      vertex -6.73205 6 16
    endloop
  endfacet
  facet normal 0.923879 -0.382684 0
    outer loop
      vertex -6.73205 6 0
      vertex -6.93185 5.51764 16
      vertex -6.93185 5.51764 0
    endloop
  endfacet
  facet normal 0.382684 -0.923879 0
    outer loop
      vertex -6 6.73205 0
      vertex -5.51764 6.93185 16
      vertex -6 6.73205 16
    endloop
  endfacet
  facet normal 0.382684 -0.923879 0
    outer loop
      vertex -5.51764 6.93185 16
      vertex -6 6.73205 0
      vertex -5.51764 6.93185 0
    endloop
  endfacet
  facet normal -0.991445 0.130525 0
    outer loop
      vertex -3.06815 4.48236 0
      vertex -3 5 16
      vertex -3 5 0
    endloop
  endfacet
  facet normal -0.991445 0.130525 0
    outer loop
      vertex -3 5 16
      vertex -3.06815 4.48236 0
      vertex -3.06815 4.48236 16
    endloop
  endfacet
  facet normal -0.793354 0.608761 0
    outer loop
      vertex -3.58579 3.58579 0
      vertex -3.26795 4 16
      vertex -3.26795 4 0
    endloop
  endfacet
  facet normal -0.793354 0.608761 0
    outer loop
      vertex -3.26795 4 16
      vertex -3.58579 3.58579 0
      vertex -3.58579 3.58579 16
    endloop
  endfacet
  facet normal -0.923879 0.382684 0
    outer loop
      vertex -3.26795 4 0
      vertex -3.06815 4.48236 16
      vertex -3.06815 4.48236 0
    endloop
  endfacet
  facet normal -0.923879 0.382684 0
    outer loop
      vertex -3.06815 4.48236 16
      vertex -3.26795 4 0
      vertex -3.26795 4 16
    endloop
  endfacet
  facet normal 0.608761 0.793354 -0
    outer loop
      vertex -6 3.26795 0
      vertex -6.41421 3.58579 16
      vertex -6 3.26795 16
    endloop
  endfacet
  facet normal 0.608761 0.793354 0
    outer loop
      vertex -6.41421 3.58579 16
      vertex -6 3.26795 0
      vertex -6.41421 3.58579 0
    endloop
  endfacet
  facet normal 0.923879 0.382684 0
    outer loop
      vertex -6.73205 4 16
      vertex -6.93185 4.48236 0
      vertex -6.93185 4.48236 16
    endloop
  endfacet
  facet normal 0.923879 0.382684 0
    outer loop
      vertex -6.93185 4.48236 0
      vertex -6.73205 4 16
      vertex -6.73205 4 0
    endloop
  endfacet
  facet normal 0.991445 0.130527 0
    outer loop
      vertex -6.93185 4.48236 16
      vertex -7 5 0
      vertex -7 5 16
    endloop
  endfacet
  facet normal 0.991445 0.130527 0
    outer loop
      vertex -7 5 0
      vertex -6.93185 4.48236 16
      vertex -6.93185 4.48236 0
    endloop
  endfacet
  facet normal 0.793354 0.60876 0
    outer loop
      vertex -6.41421 3.58579 16
      vertex -6.73205 4 0
      vertex -6.73205 4 16
    endloop
  endfacet
  facet normal 0.793354 0.60876 0
    outer loop
      vertex -6.73205 4 0
      vertex -6.41421 3.58579 16
      vertex -6.41421 3.58579 0
    endloop
  endfacet
  facet normal 0.130525 0.991445 -0
    outer loop
      vertex -5 3 0
      vertex -5.51764 3.06815 16
      vertex -5 3 16
    endloop
  endfacet
  facet normal 0.130525 0.991445 0
    outer loop
      vertex -5.51764 3.06815 16
      vertex -5 3 0
      vertex -5.51764 3.06815 0
    endloop
  endfacet
  facet normal 0.382684 0.923879 -0
    outer loop
      vertex -5.51764 3.06815 0
      vertex -6 3.26795 16
      vertex -5.51764 3.06815 16
    endloop
  endfacet
  facet normal 0.382684 0.923879 0
    outer loop
      vertex -6 3.26795 16
      vertex -5.51764 3.06815 0
      vertex -6 3.26795 0
    endloop
  endfacet
  facet normal -0.60876 0.793354 0
    outer loop
      vertex -3.58579 3.58579 0
      vertex -4 3.26795 16
      vertex -3.58579 3.58579 16
    endloop
  endfacet
  facet normal -0.60876 0.793354 0
    outer loop
      vertex -4 3.26795 16
      vertex -3.58579 3.58579 0
      vertex -4 3.26795 0
    endloop
  endfacet
  facet normal -0.382684 0.923879 0
    outer loop
      vertex -4 3.26795 0
      vertex -4.48236 3.06815 16
      vertex -4 3.26795 16
    endloop
  endfacet
  facet normal -0.382684 0.923879 0
    outer loop
      vertex -4.48236 3.06815 16
      vertex -4 3.26795 0
      vertex -4.48236 3.06815 0
    endloop
  endfacet
  facet normal 1 -0 0
    outer loop
      vertex 3 3 16
      vertex 3 35 3
      vertex 3 35 16
    endloop
  endfacet
  facet normal 1 0 0
    outer loop
      vertex 3 35 3
      vertex 3 3 16
      vertex 3 3 3
    endloop
  endfacet
  facet normal -1 0 0
    outer loop
      vertex 48 3 3
      vertex 48 35 16
      vertex 48 35 3
    endloop
  endfacet
  facet normal -1 -0 0
    outer loop
      vertex 48 35 16
      vertex 48 3 3
      vertex 48 3 16
    endloop
  endfacet
  facet normal 0 -1 0
    outer loop
      vertex 3 35 16
      vertex 9.5 35 7
      vertex 9.5 35 16
    endloop
  endfacet
  facet normal 0 -1 0
    outer loop
      vertex 3 35 3
      vertex 9.5 35 7
      vertex 3 35 16
    endloop
  endfacet
  facet normal 0 -1 -0
    outer loop
      vertex 9.5 35 7
      vertex 3 35 3
      vertex 9.6363 35 5.96472
    endloop
  endfacet
  facet normal 0 -1 -0
    outer loop
      vertex 9.6363 35 5.96472
      vertex 3 35 3
      vertex 10.0359 35 5
    endloop
  endfacet
  facet normal 0 -1 0
    outer loop
      vertex 3 35 3
      vertex 10.6716 35 4.17157
      vertex 10.0359 35 5
    endloop
  endfacet
  facet normal 0 -1 0
    outer loop
      vertex 3 35 3
      vertex 11.5 35 3.5359
      vertex 10.6716 35 4.17157
    endloop
  endfacet
  facet normal 0 -1 0
    outer loop
      vertex 3 35 3
      vertex 12.4647 35 3.1363
      vertex 11.5 35 3.5359
    endloop
  endfacet
  facet normal 0 -1 -0
    outer loop
      vertex 12.4647 35 3.1363
      vertex 3 35 3
      vertex 13.5 35 3
    endloop
  endfacet
  facet normal 0 -1 0
    outer loop
      vertex 41.5 35 7
      vertex 48 35 16
      vertex 41.5 35 16
    endloop
  endfacet
  facet normal 0 -1 0
    outer loop
      vertex 48 35 3
      vertex 41.5 35 7
      vertex 41.3637 35 5.96472
    endloop
  endfacet
  facet normal 0 -1 0
    outer loop
      vertex 48 35 3
      vertex 41.3637 35 5.96472
      vertex 41.0041 35 5.09647
    endloop
  endfacet
  facet normal 0 -1 0
    outer loop
      vertex 48 35 3
      vertex 41.0041 35 5.09647
      vertex 40.9641 35 5
    endloop
  endfacet
  facet normal 0 -1 0
    outer loop
      vertex 48 35 3
      vertex 40.9005 35 4.91716
      vertex 40.3284 35 4.17157
    endloop
  endfacet
  facet normal 0 -1 0
    outer loop
      vertex 41.5 35 7
      vertex 48 35 3
      vertex 48 35 16
    endloop
  endfacet
  facet normal 0 -1 0
    outer loop
      vertex 40.9005 35 4.91716
      vertex 48 35 3
      vertex 40.9641 35 5
    endloop
  endfacet
  facet normal 0 -1 0
    outer loop
      vertex 39.5 35 3.5359
      vertex 48 35 3
      vertex 40.3284 35 4.17157
    endloop
  endfacet
  facet normal 0 -1 0
    outer loop
      vertex 38.5353 35 3.1363
      vertex 48 35 3
      vertex 39.5 35 3.5359
    endloop
  endfacet
  facet normal 0 -1 0
    outer loop
      vertex 48 35 3
      vertex 38.5353 35 3.1363
      vertex 37.5 35 3
    endloop
  endfacet
  facet normal 0 -1 0
    outer loop
      vertex 17.5 35 7
      vertex 33.5 35 16
      vertex 17.5 35 16
    endloop
  endfacet
  facet normal 0 -1 0
    outer loop
      vertex 17.5 35 7
      vertex 33.5 35 7
      vertex 33.5 35 16
    endloop
  endfacet
  facet normal 0 -1 0
    outer loop
      vertex 17.3637 35 5.96472
      vertex 33.5 35 7
      vertex 17.5 35 7
    endloop
  endfacet
  facet normal 0 -1 0
    outer loop
      vertex 17.3637 35 5.96472
      vertex 33.6363 35 5.96472
      vertex 33.5 35 7
    endloop
  endfacet
  facet normal 0 -1 0
    outer loop
      vertex 17.0041 35 5.09647
      vertex 33.6363 35 5.96472
      vertex 17.3637 35 5.96472
    endloop
  endfacet
  facet normal 0 -1 0
    outer loop
      vertex 17.0041 35 5.09647
      vertex 34.0359 35 5
      vertex 33.6363 35 5.96472
    endloop
  endfacet
  facet normal 0 -1 0
    outer loop
      vertex 16.9641 35 5
      vertex 34.0359 35 5
      vertex 17.0041 35 5.09647
    endloop
  endfacet
  facet normal 0 -1 0
    outer loop
      vertex 16.9005 35 4.91716
      vertex 34.0359 35 5
      vertex 16.9641 35 5
    endloop
  endfacet
  facet normal 0 -1 0
    outer loop
      vertex 16.3284 35 4.17157
      vertex 34.0359 35 5
      vertex 16.9005 35 4.91716
    endloop
  endfacet
  facet normal 0 -1 0
    outer loop
      vertex 16.3284 35 4.17157
      vertex 34.6716 35 4.17157
      vertex 34.0359 35 5
    endloop
  endfacet
  facet normal 0 -1 0
    outer loop
      vertex 15.5 35 3.5359
      vertex 34.6716 35 4.17157
      vertex 16.3284 35 4.17157
    endloop
  endfacet
  facet normal 0 -1 0
    outer loop
      vertex 15.5 35 3.5359
      vertex 35.5 35 3.5359
      vertex 34.6716 35 4.17157
    endloop
  endfacet
  facet normal 0 -1 0
    outer loop
      vertex 14.5353 35 3.1363
      vertex 35.5 35 3.5359
      vertex 15.5 35 3.5359
    endloop
  endfacet
  facet normal 0 -1 0
    outer loop
      vertex 14.5353 35 3.1363
      vertex 36.4647 35 3.1363
      vertex 35.5 35 3.5359
    endloop
  endfacet
  facet normal 0 -1 0
    outer loop
      vertex 13.5 35 3
      vertex 36.4647 35 3.1363
      vertex 14.5353 35 3.1363
    endloop
  endfacet
  facet normal 0 -1 -0
    outer loop
      vertex 36.4647 35 3.1363
      vertex 13.5 35 3
      vertex 37.5 35 3
    endloop
  endfacet
  facet normal -0 0 1
    outer loop
      vertex 37.5 35 3
      vertex 48 3 3
      vertex 48 35 3
    endloop
  endfacet
  facet normal 0 0 1
    outer loop
      vertex 37.5 35 3
      vertex 37.5 3 3
      vertex 48 3 3
    endloop
  endfacet
  facet normal -0 0 1
    outer loop
      vertex 13.5 35 3
      vertex 37.5 3 3
      vertex 37.5 35 3
    endloop
  endfacet
  facet normal 0 0 1
    outer loop
      vertex 13.5 35 3
      vertex 13.5 3 3
      vertex 37.5 3 3
    endloop
  endfacet
  facet normal -0 0 1
    outer loop
      vertex 3 35 3
      vertex 13.5 3 3
      vertex 13.5 35 3
    endloop
  endfacet
  facet normal 0 0 1
    outer loop
      vertex 13.5 3 3
      vertex 3 35 3
      vertex 3 3 3
    endloop
  endfacet
  facet normal 0 1 -0
    outer loop
      vertex 9.5 3 7
      vertex 3 3 16
      vertex 9.5 3 16
    endloop
  endfacet
  facet normal 0 1 0
    outer loop
      vertex 3 3 3
      vertex 9.5 3 7
      vertex 9.6363 3 5.96472
    endloop
  endfacet
  facet normal 0 1 0
    outer loop
      vertex 3 3 3
      vertex 9.6363 3 5.96472
      vertex 10.0359 3 5
    endloop
  endfacet
  facet normal 0 1 0
    outer loop
      vertex 9.5 3 7
      vertex 3 3 3
      vertex 3 3 16
    endloop
  endfacet
  facet normal 0 1 0
    outer loop
      vertex 10.6716 3 4.17157
      vertex 3 3 3
      vertex 10.0359 3 5
    endloop
  endfacet
  facet normal 0 1 0
    outer loop
      vertex 11.5 3 3.5359
      vertex 3 3 3
      vertex 10.6716 3 4.17157
    endloop
  endfacet
  facet normal 0 1 0
    outer loop
      vertex 12.4647 3 3.1363
      vertex 3 3 3
      vertex 11.5 3 3.5359
    endloop
  endfacet
  facet normal 0 1 0
    outer loop
      vertex 3 3 3
      vertex 12.4647 3 3.1363
      vertex 13.5 3 3
    endloop
  endfacet
  facet normal 0 1 0
    outer loop
      vertex 48 3 16
      vertex 41.5 3 7
      vertex 41.5 3 16
    endloop
  endfacet
  facet normal 0 1 -0
    outer loop
      vertex 48 3 3
      vertex 41.5 3 7
      vertex 48 3 16
    endloop
  endfacet
  facet normal 0 1 0
    outer loop
      vertex 41.5 3 7
      vertex 48 3 3
      vertex 41.3637 3 5.96472
    endloop
  endfacet
  facet normal 0 1 0
    outer loop
      vertex 41.3637 3 5.96472
      vertex 48 3 3
      vertex 41.3237 3 5.86825
    endloop
  endfacet
  facet normal 0 1 0
    outer loop
      vertex 41.3237 3 5.86825
      vertex 48 3 3
      vertex 40.9641 3 5
    endloop
  endfacet
  facet normal 0 1 0
    outer loop
      vertex 48 3 3
      vertex 40.392 3 4.25442
      vertex 40.9641 3 5
    endloop
  endfacet
  facet normal 0 1 0
    outer loop
      vertex 48 3 3
      vertex 40.3284 3 4.17157
      vertex 40.392 3 4.25442
    endloop
  endfacet
  facet normal 0 1 0
    outer loop
      vertex 48 3 3
      vertex 39.5 3 3.5359
      vertex 40.3284 3 4.17157
    endloop
  endfacet
  facet normal 0 1 0
    outer loop
      vertex 48 3 3
      vertex 38.5353 3 3.1363
      vertex 39.5 3 3.5359
    endloop
  endfacet
  facet normal 0 1 0
    outer loop
      vertex 38.5353 3 3.1363
      vertex 48 3 3
      vertex 37.5 3 3
    endloop
  endfacet
  facet normal 0 1 -0
    outer loop
      vertex 33.5 3 7
      vertex 17.5 3 16
      vertex 33.5 3 16
    endloop
  endfacet
  facet normal 0 1 0
    outer loop
      vertex 33.5 3 7
      vertex 17.5 3 7
      vertex 17.5 3 16
    endloop
  endfacet
  facet normal 0 1 0
    outer loop
      vertex 33.6363 3 5.96472
      vertex 17.5 3 7
      vertex 33.5 3 7
    endloop
  endfacet
  facet normal 0 1 0
    outer loop
      vertex 33.6363 3 5.96472
      vertex 17.3637 3 5.96472
      vertex 17.5 3 7
    endloop
  endfacet
  facet normal 0 1 0
    outer loop
      vertex 33.6363 3 5.96472
      vertex 17.3237 3 5.86825
      vertex 17.3637 3 5.96472
    endloop
  endfacet
  facet normal 0 1 0
    outer loop
      vertex 34.0359 3 5
      vertex 17.3237 3 5.86825
      vertex 33.6363 3 5.96472
    endloop
  endfacet
  facet normal 0 1 0
    outer loop
      vertex 34.0359 3 5
      vertex 16.9641 3 5
      vertex 17.3237 3 5.86825
    endloop
  endfacet
  facet normal 0 1 0
    outer loop
      vertex 34.0359 3 5
      vertex 16.392 3 4.25442
      vertex 16.9641 3 5
    endloop
  endfacet
  facet normal 0 1 0
    outer loop
      vertex 34.6716 3 4.17157
      vertex 16.392 3 4.25442
      vertex 34.0359 3 5
    endloop
  endfacet
  facet normal 0 1 0
    outer loop
      vertex 34.6716 3 4.17157
      vertex 16.3284 3 4.17157
      vertex 16.392 3 4.25442
    endloop
  endfacet
  facet normal 0 1 0
    outer loop
      vertex 35.5 3 3.5359
      vertex 16.3284 3 4.17157
      vertex 34.6716 3 4.17157
    endloop
  endfacet
  facet normal 0 1 0
    outer loop
      vertex 35.5 3 3.5359
      vertex 15.5 3 3.5359
      vertex 16.3284 3 4.17157
    endloop
  endfacet
  facet normal 0 1 0
    outer loop
      vertex 36.4647 3 3.1363
      vertex 15.5 3 3.5359
      vertex 35.5 3 3.5359
    endloop
  endfacet
  facet normal 0 1 0
    outer loop
      vertex 36.4647 3 3.1363
      vertex 14.5353 3 3.1363
      vertex 15.5 3 3.5359
    endloop
  endfacet
  facet normal 0 1 0
    outer loop
      vertex 37.5 3 3
      vertex 14.5353 3 3.1363
      vertex 36.4647 3 3.1363
    endloop
  endfacet
  facet normal 0 1 0
    outer loop
      vertex 14.5353 3 3.1363
      vertex 37.5 3 3
      vertex 13.5 3 3
    endloop
  endfacet
endsolid OpenSCAD_Model
